<svg xmlns="http://www.w3.org/2000/svg" viewBox="0 0 50 50"><defs><style>.cls-1{fill:#00ce8e;}.cls-2{fill:#fffcdc;}</style></defs><g id="Layer_2" data-name="Layer 2"><g id="Layer_1-2" data-name="Layer 1"><path class="cls-1" d="M43.15,42.18l.4-.42c.14-.15.27-.31.4-.46l.56-.67L45,40c.1-.14.2-.29.31-.43l.36-.51c.11-.16.2-.31.3-.47s.23-.34.33-.51l.29-.48.3-.53.27-.5.27-.54q.14-.26.24-.51c.09-.19.18-.37.26-.56l.21-.52c.08-.19.16-.38.23-.58s.13-.35.19-.52l.21-.6c0-.18.11-.35.16-.53l.18-.62.14-.53.15-.64c0-.18.08-.36.11-.53s.08-.45.12-.68l.09-.52.09-.72.06-.49.06-.82,0-.41c0-.41,0-.82,0-1.24,0-.61,0-1.21-.07-1.8l0-.4c0-.58-.12-1.16-.21-1.73,0-.08,0-.16,0-.24-.09-.52-.19-1-.31-1.54L49.26,19c-.13-.55-.29-1.1-.46-1.63,0-.11-.07-.22-.11-.32-.17-.5-.35-1-.55-1.48a1.34,1.34,0,0,0-.07-.18c-.22-.52-.46-1-.71-1.54l-.16-.31c-.26-.51-.54-1-.83-1.5h0c-.29-.49-.61-1-.94-1.42-.06-.09-.13-.18-.19-.28-.33-.45-.67-.89-1-1.32l-.15-.17c-.33-.39-.68-.78-1-1.15l-.19-.2c-.39-.4-.8-.78-1.21-1.15l-.24-.21c-.4-.34-.81-.68-1.23-1L40,5c-.45-.34-.92-.66-1.39-1l-.3-.19c-.47-.3-1-.59-1.46-.86l-.07,0c-.48-.26-1-.49-1.47-.72L35,2.09c-.51-.22-1-.43-1.56-.62l-.08,0h0A25,25,0,1,0,25,50a25.47,25.47,0,0,0,2.78-.16h0l.63-.09.46-.06c.28,0,.55-.09.82-.15l.38-.06c.39-.08.77-.17,1.16-.27l.37-.11.77-.22.49-.16.63-.21.52-.2.58-.23.53-.23.54-.25.52-.25.53-.27.51-.28.5-.29.51-.31.48-.31.49-.33.46-.33c.16-.11.33-.23.48-.35l.45-.35.46-.38.43-.37.44-.39.41-.39c.14-.14.29-.27.42-.41Z"/><path class="cls-2" d="M23.47,38.44a3.62,3.62,0,0,1-2.22-.76L9.46,28.59a3.64,3.64,0,0,1,4.45-5.77l9.12,7L35.61,15.93A3.64,3.64,0,1,1,41,20.82L26.18,37.24A3.66,3.66,0,0,1,23.47,38.44Z"/></g></g></svg>