<svg xmlns="http://www.w3.org/2000/svg" xmlns:xlink="http://www.w3.org/1999/xlink" viewBox="0 0 329.98 351.26"><defs><clipPath id="clip-path"><path d="M328.58,49.11l0,17.6c0,1.49-1,3-2.94,4.12l0-17.6C327.59,52.1,328.57,50.61,328.58,49.11Z" style="fill:#333"/></clipPath><clipPath id="clip-path-2"><polygon id="SVGID" points="286.55 36.25 82.45 154.86 29.64 124.37 233.74 5.76 286.55 36.25" style="fill:none"/></clipPath><clipPath id="clip-path-3"><path id="SVGID-2" data-name="SVGID" d="M0,162.74l0-17.6c0,3,2,6.05,6,8.36L6,171.1C2,168.8,0,165.77,0,162.74Z" style="fill:#1c1c1c"/></clipPath><clipPath id="clip-path-4"><path id="SVGID-3" data-name="SVGID" d="M87.27,191.75l0,17.6a16.52,16.52,0,0,1-15,0l0-17.6A16.51,16.51,0,0,0,87.27,191.75Z" style="fill:#1c1c1c"/></clipPath><clipPath id="clip-path-5"><path id="SVGID-4" data-name="SVGID" d="M195.51,122.22v1.1a1.32,1.32,0,0,1-.77,1.08v-1.1A1.31,1.31,0,0,0,195.51,122.22Z" style="fill:#f37021"/></clipPath><clipPath id="clip-path-6"><path id="SVGID-5" data-name="SVGID" d="M186,125.77v-1.1a1.32,1.32,0,0,0,.78,1.09,4.14,4.14,0,0,0,3.75,0v1.1a4.14,4.14,0,0,1-3.74,0A1.32,1.32,0,0,1,186,125.77Z" style="fill:#f37021"/></clipPath><clipPath id="clip-path-7"><path id="SVGID-6" data-name="SVGID" d="M185.1,128.27v1.1a1.31,1.31,0,0,1-.77,1.08v-1.1A1.31,1.31,0,0,0,185.1,128.27Z" style="fill:none"/></clipPath><clipPath id="clip-path-8"><path id="SVGID-7" data-name="SVGID" d="M175.57,131.82v-1.1a1.32,1.32,0,0,0,.78,1.09,4.14,4.14,0,0,0,3.75,0v1.1a4.14,4.14,0,0,1-3.75,0A1.32,1.32,0,0,1,175.57,131.82Z" style="fill:none"/></clipPath><clipPath id="clip-path-9"><path id="SVGID-8" data-name="SVGID" d="M174.69,134.33v1.1a1.31,1.31,0,0,1-.77,1.08v-1.1A1.31,1.31,0,0,0,174.69,134.33Z" style="fill:none"/></clipPath><clipPath id="clip-path-10"><path id="SVGID-9" data-name="SVGID" d="M165.16,137.87v-1.1a1.32,1.32,0,0,0,.78,1.09,4.14,4.14,0,0,0,3.75,0V139a4.14,4.14,0,0,1-3.75,0A1.32,1.32,0,0,1,165.16,137.87Z" style="fill:none"/></clipPath><clipPath id="clip-path-11"><path id="SVGID-10" data-name="SVGID" d="M164.27,140.38v1.1a1.31,1.31,0,0,1-.77,1.08v-1.1A1.31,1.31,0,0,0,164.27,140.38Z" style="fill:none"/></clipPath><clipPath id="clip-path-12"><path id="SVGID-11" data-name="SVGID" d="M154.75,143.92v-1.1a1.32,1.32,0,0,0,.78,1.09,4.14,4.14,0,0,0,3.74,0V145a4.14,4.14,0,0,1-3.74,0A1.32,1.32,0,0,1,154.75,143.92Z" style="fill:none"/></clipPath><clipPath id="clip-path-13"><path id="SVGID-12" data-name="SVGID" d="M281.1,56.4v.93a1.11,1.11,0,0,1-.65.91v-.93A1.12,1.12,0,0,0,281.1,56.4Z" style="fill:none"/></clipPath><clipPath id="clip-path-14"><path id="SVGID-13" data-name="SVGID" d="M273,59.41v-.93a1.12,1.12,0,0,0,.66.93,3.52,3.52,0,0,0,3.18,0v.93a3.52,3.52,0,0,1-3.18,0A1.12,1.12,0,0,1,273,59.41Z" style="fill:none"/></clipPath><clipPath id="clip-path-15"><path id="SVGID-14" data-name="SVGID" d="M272.25,61.54v.93a1.12,1.12,0,0,1-.65.91v-.93A1.11,1.11,0,0,0,272.25,61.54Z" style="fill:none"/></clipPath><clipPath id="clip-path-16"><path id="SVGID-15" data-name="SVGID" d="M264.16,64.55v-.93a1.12,1.12,0,0,0,.66.93,3.52,3.52,0,0,0,3.18,0v.93a3.52,3.52,0,0,1-3.18,0A1.12,1.12,0,0,1,264.16,64.55Z" style="fill:none"/></clipPath><clipPath id="clip-path-17"><path id="SVGID-16" data-name="SVGID" d="M263.4,66.68v.93a1.11,1.11,0,0,1-.65.91v-.93A1.11,1.11,0,0,0,263.4,66.68Z" style="fill:none"/></clipPath><clipPath id="clip-path-18"><path id="SVGID-17" data-name="SVGID" d="M255.31,69.69v-.93a1.13,1.13,0,0,0,.66.93,3.52,3.52,0,0,0,3.18,0v.93a3.52,3.52,0,0,1-3.18,0A1.12,1.12,0,0,1,255.31,69.69Z" style="fill:none"/></clipPath><clipPath id="clip-path-19"><path id="SVGID-18" data-name="SVGID" d="M287.77,60.53v.93a1.12,1.12,0,0,1-.65.91v-.93A1.12,1.12,0,0,0,287.77,60.53Z" style="fill:none"/></clipPath><clipPath id="clip-path-20"><path id="SVGID-19" data-name="SVGID" d="M279.68,63.54v-.93a1.12,1.12,0,0,0,.66.93,3.52,3.52,0,0,0,3.18,0v.93a3.52,3.52,0,0,1-3.18,0A1.12,1.12,0,0,1,279.68,63.54Z" style="fill:none"/></clipPath><clipPath id="clip-path-21"><path id="SVGID-20" data-name="SVGID" d="M278.92,65.67v.93a1.11,1.11,0,0,1-.65.91v-.93A1.11,1.11,0,0,0,278.92,65.67Z" style="fill:none"/></clipPath><clipPath id="clip-path-22"><path id="SVGID-21" data-name="SVGID" d="M270.83,68.68v-.93a1.12,1.12,0,0,0,.66.93,3.52,3.52,0,0,0,3.18,0v.93a3.52,3.52,0,0,1-3.18,0A1.13,1.13,0,0,1,270.83,68.68Z" style="fill:none"/></clipPath><clipPath id="clip-path-23"><path id="SVGID-22" data-name="SVGID" d="M270.08,70.81v.93a1.11,1.11,0,0,1-.65.91v-.93A1.11,1.11,0,0,0,270.08,70.81Z" style="fill:none"/></clipPath><clipPath id="clip-path-24"><path id="SVGID-23" data-name="SVGID" d="M262,73.82v-.93a1.12,1.12,0,0,0,.66.93,3.52,3.52,0,0,0,3.18,0v.93a3.52,3.52,0,0,1-3.18,0A1.12,1.12,0,0,1,262,73.82Z" style="fill:none"/></clipPath><clipPath id="clip-path-25"><path id="SVGID-24" data-name="SVGID" d="M294.93,64.74v.93a1.12,1.12,0,0,1-.65.91v-.93A1.12,1.12,0,0,0,294.93,64.74Z" style="fill:none"/></clipPath><clipPath id="clip-path-26"><path id="SVGID-25" data-name="SVGID" d="M286.84,67.75v-.93a1.12,1.12,0,0,0,.66.93,3.52,3.52,0,0,0,3.18,0v.93a3.52,3.52,0,0,1-3.18,0A1.12,1.12,0,0,1,286.84,67.75Z" style="fill:none"/></clipPath><clipPath id="clip-path-27"><path id="SVGID-26" data-name="SVGID" d="M286.09,69.88v.93a1.11,1.11,0,0,1-.65.91v-.93A1.11,1.11,0,0,0,286.09,69.88Z" style="fill:none"/></clipPath><clipPath id="clip-path-28"><path id="SVGID-27" data-name="SVGID" d="M278,72.89V72a1.12,1.12,0,0,0,.66.93,3.52,3.52,0,0,0,3.18,0v.93a3.52,3.52,0,0,1-3.18,0A1.12,1.12,0,0,1,278,72.89Z" style="fill:none"/></clipPath><clipPath id="clip-path-29"><path id="SVGID-28" data-name="SVGID" d="M277.24,75V76a1.11,1.11,0,0,1-.65.91v-.93A1.12,1.12,0,0,0,277.24,75Z" style="fill:none"/></clipPath><clipPath id="clip-path-30"><path id="SVGID-29" data-name="SVGID" d="M269.15,78V77.1a1.12,1.12,0,0,0,.66.93A3.52,3.52,0,0,0,273,78V79a3.52,3.52,0,0,1-3.18,0A1.12,1.12,0,0,1,269.15,78Z" style="fill:none"/></clipPath><clipPath id="clip-path-31"><path id="SVGID-30" data-name="SVGID" d="M166,121.46l0,2.41a3.83,3.83,0,0,1-2.24,3.14,12,12,0,0,1-10.9,0,3.86,3.86,0,0,1-2.27-3.18l0-2.41a3.86,3.86,0,0,0,2.28,3.18,12,12,0,0,0,10.9,0A3.83,3.83,0,0,0,166,121.46Z" style="fill:none"/></clipPath><clipPath id="clip-path-32"><path id="SVGID-31" data-name="SVGID" d="M182.7,111.79l0,2.41a3.83,3.83,0,0,1-2.24,3.14,12,12,0,0,1-10.9,0,3.86,3.86,0,0,1-2.27-3.18l0-2.41a3.86,3.86,0,0,0,2.27,3.18,12,12,0,0,0,10.9,0A3.83,3.83,0,0,0,182.7,111.79Z" style="fill:none"/></clipPath><clipPath id="clip-path-33"><path id="SVGID-32" data-name="SVGID" d="M60,154.9l-.06,3.32c0,1.56-1,3.13-3.09,4.32a16.56,16.56,0,0,1-15,0c-2.09-1.21-3.14-2.8-3.13-4.38l.06-3.32c0,1.58,1,3.17,3.14,4.38a16.56,16.56,0,0,0,15,0C59,158,60,156.47,60,154.9Z" style="fill:none"/></clipPath><clipPath id="clip-path-34"><path id="SVGID-33" data-name="SVGID" d="M35.54,141.07l-.06,3.32c0,1.56-1,3.13-3.09,4.32a16.56,16.56,0,0,1-15,0c-2.09-1.21-3.14-2.8-3.13-4.38L14.3,141c0,1.58,1,3.17,3.14,4.38a16.55,16.55,0,0,0,15,0C34.51,144.2,35.54,142.64,35.54,141.07Z" style="fill:none"/></clipPath><clipPath id="clip-path-35"><path id="SVGID-34" data-name="SVGID" d="M109.07,145.76l0,5.21a1.39,1.39,0,0,1-.81,1.14,4.36,4.36,0,0,1-4,0,1.4,1.4,0,0,1-.82-1.15l0-5.21a1.4,1.4,0,0,0,.82,1.15,4.36,4.36,0,0,0,4,0A1.39,1.39,0,0,0,109.07,145.76Z" style="fill:none"/></clipPath><clipPath id="clip-path-36"><path id="SVGID-35" data-name="SVGID" d="M120,139.44l0,5.21a1.39,1.39,0,0,1-.81,1.14,4.36,4.36,0,0,1-4,0,1.4,1.4,0,0,1-.83-1.15l0-5.21a1.4,1.4,0,0,0,.82,1.15,4.36,4.36,0,0,0,4,0A1.39,1.39,0,0,0,120,139.44Z" style="fill:none"/></clipPath><clipPath id="clip-path-37"><path id="SVGID-36" data-name="SVGID" d="M131,133.28l0,5.21a1.39,1.39,0,0,1-.81,1.14,4.36,4.36,0,0,1-4,0,1.4,1.4,0,0,1-.82-1.15l0-5.21a1.4,1.4,0,0,0,.82,1.15,4.36,4.36,0,0,0,4,0A1.39,1.39,0,0,0,131,133.28Z" style="fill:none"/></clipPath><clipPath id="clip-path-38"><path id="SVGID-37" data-name="SVGID" d="M121.06,146.56l0,5.21a1.39,1.39,0,0,1-.81,1.14,4.36,4.36,0,0,1-4,0,1.4,1.4,0,0,1-.82-1.15l0-5.21a1.4,1.4,0,0,0,.83,1.15,4.36,4.36,0,0,0,4,0A1.39,1.39,0,0,0,121.06,146.56Z" style="fill:none"/></clipPath><clipPath id="clip-path-39"><path id="SVGID-38" data-name="SVGID" d="M132,140.25l0,5.21a1.39,1.39,0,0,1-.81,1.14,4.36,4.36,0,0,1-4,0,1.4,1.4,0,0,1-.82-1.15l0-5.21a1.4,1.4,0,0,0,.82,1.15,4.36,4.36,0,0,0,4,0A1.39,1.39,0,0,0,132,140.25Z" style="fill:none"/></clipPath><clipPath id="clip-path-40"><path id="SVGID-39" data-name="SVGID" d="M103.43,172.39V173a.75.75,0,0,1-.44.61V173A.75.75,0,0,0,103.43,172.39Z" style="fill:#f1f1f4"/></clipPath><clipPath id="clip-path-41"><path id="SVGID-40" data-name="SVGID" d="M98,174.42v-.63a.76.76,0,0,0,.45.62,2.37,2.37,0,0,0,2.14,0V175a2.37,2.37,0,0,1-2.14,0A.76.76,0,0,1,98,174.42Z" style="fill:#f1f1f4"/></clipPath><clipPath id="clip-path-42"><path id="SVGID-41" data-name="SVGID" d="M92.29,172.7v.63a.75.75,0,0,1-.44.62v-.63A.75.75,0,0,0,92.29,172.7Z" style="fill:#f1f1f4"/></clipPath><clipPath id="clip-path-43"><path id="SVGID-42" data-name="SVGID" d="M86.85,174.73v-.63a.76.76,0,0,0,.45.62,2.37,2.37,0,0,0,2.14,0v.63a2.37,2.37,0,0,1-2.14,0A.76.76,0,0,1,86.85,174.73Z" style="fill:#f1f1f4"/></clipPath><clipPath id="clip-path-44"><path id="SVGID-43" data-name="SVGID" d="M75.45,170.17v.63a.75.75,0,0,1-.44.62v-.63A.75.75,0,0,0,75.45,170.17Z" style="fill:#f1f1f4"/></clipPath><clipPath id="clip-path-45"><path id="SVGID-44" data-name="SVGID" d="M70,172.19v-.63a.75.75,0,0,0,.45.62,2.36,2.36,0,0,0,2.14,0v.63a2.36,2.36,0,0,1-2.14,0A.75.75,0,0,1,70,172.19Z" style="fill:#f1f1f4"/></clipPath><clipPath id="clip-path-46"><path id="SVGID-45" data-name="SVGID" d="M84,181.86v.63a.75.75,0,0,1-.44.62v-.63A.75.75,0,0,0,84,181.86Z" style="fill:#f1f1f4"/></clipPath><clipPath id="clip-path-47"><path id="SVGID-46" data-name="SVGID" d="M78.58,183.89v-.63a.76.76,0,0,0,.44.62,2.36,2.36,0,0,0,2.14,0v.63a2.37,2.37,0,0,1-2.14,0A.76.76,0,0,1,78.58,183.89Z" style="fill:#f1f1f4"/></clipPath><clipPath id="clip-path-48"><path id="SVGID-47" data-name="SVGID" d="M66.09,178.41V179a.75.75,0,0,1-.44.62V179A.75.75,0,0,0,66.09,178.41Z" style="fill:#f1f1f4"/></clipPath><clipPath id="clip-path-49"><path id="SVGID-48" data-name="SVGID" d="M60.65,180.43v-.63a.75.75,0,0,0,.45.62,2.36,2.36,0,0,0,2.14,0v.63a2.37,2.37,0,0,1-2.14,0A.76.76,0,0,1,60.65,180.43Z" style="fill:#f1f1f4"/></clipPath></defs><title>keyboard</title><g id="Layer_2" data-name="Layer 2"><g id="Layer_1-2" data-name="Layer 1"><path d="M217.89,192.85a2.11,2.11,0,0,1-1.27-.43,2.5,2.5,0,0,1-.54-3.32l63.18-96.71a2.13,2.13,0,0,1,3.09-.58,2.5,2.5,0,0,1,.54,3.32l-63.18,96.71A2.18,2.18,0,0,1,217.89,192.85Z" style="fill:#333"/><path d="M275.55,228.56a2.23,2.23,0,0,1-2.07-1.52L215.83,67.63a2.44,2.44,0,0,1,1.27-3.08A2.18,2.18,0,0,1,220,65.91l57.65,159.4a2.44,2.44,0,0,1-1.27,3.08A2.09,2.09,0,0,1,275.55,228.56Z" style="fill:#333"/><path d="M286.7,236.66a2.1,2.1,0,0,1-1.11-.32l-80-49.53a2.48,2.48,0,0,1-.81-3.26,2.14,2.14,0,0,1,3-.87l80,49.53a2.48,2.48,0,0,1,.81,3.26A2.2,2.2,0,0,1,286.7,236.66Z" style="fill:#333"/><path d="M78.84,274.47a2.11,2.11,0,0,1-1.28-.43,2.49,2.49,0,0,1-.54-3.32l69.74-106.43a2.13,2.13,0,0,1,3.09-.58,2.49,2.49,0,0,1,.54,3.32L80.66,273.46A2.18,2.18,0,0,1,78.84,274.47Z" style="fill:#333"/><path d="M137,311.62a2.23,2.23,0,0,1-2.07-1.52L76.77,149.26A2.44,2.44,0,0,1,78,146.18a2.18,2.18,0,0,1,2.87,1.36l58.17,160.84a2.44,2.44,0,0,1-1.27,3.08A2.09,2.09,0,0,1,137,311.62Z" style="fill:#333"/><path d="M147.65,318.29a2.1,2.1,0,0,1-1.11-.32l-80-49.53a2.48,2.48,0,0,1-.81-3.26,2.14,2.14,0,0,1,3-.87l80,49.53a2.48,2.48,0,0,1,.81,3.26A2.2,2.2,0,0,1,147.65,318.29Z" style="fill:#333"/><g style="isolation:isolate"><polygon points="268.55 25.24 268.5 42.84 233.15 22.43 233.2 4.83 268.55 25.24" style="fill:#1c1c1c"/><path d="M328.58,49.11l0,17.6c0,1.49-1,3-2.94,4.12l0-17.6C327.59,52.1,328.57,50.61,328.58,49.11Z" style="fill:#333"/><g style="clip-path:url(#clip-path)"><g style="isolation:isolate"><path d="M328.58,49.11l0,17.6a4,4,0,0,1-1.08,2.63l0-17.6a4,4,0,0,0,1.08-2.63Z" style="fill:#333"/><path d="M327.49,51.75l0,17.6a7.36,7.36,0,0,1-1.86,1.49l0-17.6a7.36,7.36,0,0,0,1.86-1.49Z" style="fill:#333"/></g></g><polygon points="321.35 55.73 321.3 73.32 268.5 42.84 268.55 25.24 321.35 55.73" style="fill:#1c1c1c"/><polygon points="325.63 53.24 325.58 70.83 321.3 73.32 321.35 55.73 325.63 53.24" style="fill:#333"/><path d="M325.63,53.24l-4.28,2.49-52.8-30.49L244.76,11.51l-3.17-1.83L233.2,4.84l6.12-3.56a11.72,11.72,0,0,1,10.64,0l3.09,1.78,3.17,1.83,69.36,40C329.55,47.23,329.58,50.94,325.63,53.24Z" style="fill:#414141"/></g><g style="isolation:isolate"><polygon points="285.81 36.28 285.79 45.08 81.69 163.69 81.72 154.89 285.81 36.28" style="fill:#e6e6e5"/><polygon points="81.72 154.89 81.69 163.69 28.89 133.21 28.91 124.41 81.72 154.89" style="fill:#898989"/><polygon points="285.81 36.28 81.72 154.89 28.91 124.41 233.01 5.8 285.81 36.28" style="fill:#fff"/></g><g style="clip-path:url(#clip-path-2)"><rect x="56.71" y="105.29" width="0.27" height="66.44" transform="translate(-91.55 118.58) rotate(-60.04)" style="fill:#1c1c1c"/><rect x="63.71" y="101.24" width="0.27" height="66.44" transform="translate(-84.53 122.62) rotate(-60.04)" style="fill:#1c1c1c"/><rect x="70.72" y="97.19" width="0.27" height="66.44" transform="translate(-77.52 126.66) rotate(-60.04)" style="fill:#1c1c1c"/><rect x="77.72" y="93.14" width="0.27" height="66.44" transform="translate(-70.5 130.7) rotate(-60.04)" style="fill:#1c1c1c"/><rect x="84.72" y="89.09" width="0.27" height="66.44" transform="translate(-63.49 134.74) rotate(-60.04)" style="fill:#1c1c1c"/><rect x="91.73" y="85.04" width="0.27" height="66.44" transform="translate(-56.47 138.78) rotate(-60.04)" style="fill:#1c1c1c"/><rect x="98.73" y="80.99" width="0.27" height="66.44" transform="translate(-49.46 142.82) rotate(-60.04)" style="fill:#1c1c1c"/><polygon points="134.58 126.87 77.02 93.69 77.16 93.46 134.72 126.64 134.58 126.87" style="fill:#1c1c1c"/><rect x="112.74" y="72.89" width="0.27" height="66.44" transform="translate(-35.43 150.9) rotate(-60.04)" style="fill:#1c1c1c"/><polygon points="148.59 118.77 91.03 85.59 91.17 85.36 148.73 118.54 148.59 118.77" style="fill:#1c1c1c"/><polygon points="155.59 114.72 98.03 81.54 98.17 81.31 155.73 114.49 155.59 114.72" style="fill:#1c1c1c"/><rect x="133.75" y="60.75" width="0.27" height="66.44" transform="translate(-14.39 163.03) rotate(-60.04)" style="fill:#1c1c1c"/><rect x="140.75" y="56.7" width="0.27" height="66.44" transform="translate(-7.38 167.07) rotate(-60.04)" style="fill:#1c1c1c"/><rect x="147.76" y="52.65" width="0.27" height="66.44" transform="translate(-0.36 171.11) rotate(-60.04)" style="fill:#1c1c1c"/><rect x="155.03" y="48.6" width="0.27" height="66.44" transform="translate(6.79 175.38) rotate(-60.04)" style="fill:#1c1c1c"/><rect x="162.03" y="44.55" width="0.27" height="66.44" transform="translate(13.8 179.42) rotate(-60.04)" style="fill:#1c1c1c"/><rect x="169.04" y="40.5" width="0.27" height="66.44" transform="translate(20.82 183.46) rotate(-60.04)" style="fill:#1c1c1c"/><polygon points="204.89 86.38 147.33 53.19 147.46 52.96 205.02 86.14 204.89 86.38" style="fill:#1c1c1c"/><polygon points="211.89 82.33 154.33 49.14 154.47 48.91 212.03 82.09 211.89 82.33" style="fill:#1c1c1c"/><rect x="190.05" y="28.35" width="0.27" height="66.44" transform="translate(41.86 195.58) rotate(-60.04)" style="fill:#1c1c1c"/><rect x="197.05" y="24.3" width="0.27" height="66.44" transform="translate(48.87 199.62) rotate(-60.04)" style="fill:#1c1c1c"/><rect x="204.05" y="20.25" width="0.27" height="66.44" transform="translate(55.89 203.66) rotate(-60.04)" style="fill:#1c1c1c"/><rect x="211.06" y="16.2" width="0.27" height="66.44" transform="translate(62.9 207.7) rotate(-60.04)" style="fill:#1c1c1c"/><rect x="218.06" y="12.15" width="0.27" height="66.44" transform="translate(69.91 211.74) rotate(-60.04)" style="fill:#1c1c1c"/><rect x="225.06" y="8.1" width="0.27" height="66.44" transform="translate(76.93 215.78) rotate(-60.04)" style="fill:#1c1c1c"/><rect x="232.07" y="4.05" width="0.27" height="66.44" transform="translate(83.94 219.82) rotate(-60.04)" style="fill:#1c1c1c"/><rect x="239.07" width="0.27" height="66.44" transform="translate(90.96 223.86) rotate(-60.04)" style="fill:#1c1c1c"/><rect x="246.08" y="-4.05" width="0.27" height="66.44" transform="translate(97.97 227.9) rotate(-60.04)" style="fill:#1c1c1c"/><rect x="253.08" y="-8.1" width="0.27" height="66.44" transform="translate(104.99 231.95) rotate(-60.04)" style="fill:#1c1c1c"/></g><g style="isolation:isolate"><polygon points="99.47 143.82 99.47 146.02 96.01 148.03 96.02 145.82 99.47 143.82" style="fill:#333"/><polygon points="96.02 145.82 96.01 148.03 64.15 129.63 64.15 127.43 96.02 145.82" style="fill:#1c1c1c"/><polygon points="99.47 143.82 96.02 145.82 64.15 127.43 67.61 125.42 99.47 143.82" style="fill:#414141"/></g><g style="isolation:isolate"><polygon points="106.01 140.01 106 142.21 102.55 144.22 102.55 142.02 106.01 140.01" style="fill:#333"/><polygon points="102.55 142.02 102.55 144.22 70.68 125.82 70.69 123.62 102.55 142.02" style="fill:#1c1c1c"/><polygon points="106.01 140.01 102.55 142.02 70.69 123.62 74.14 121.61 106.01 140.01" style="fill:#414141"/></g><g style="isolation:isolate"><polygon points="119.77 132.02 119.76 134.22 116.31 136.23 116.31 134.03 119.77 132.02" style="fill:#333"/><polygon points="116.31 134.03 116.31 136.23 84.44 117.83 84.45 115.63 116.31 134.03" style="fill:#1c1c1c"/><polygon points="119.77 132.02 116.31 134.03 84.45 115.63 87.9 113.63 119.77 132.02" style="fill:#414141"/></g><g style="isolation:isolate"><polygon points="126.3 128.21 126.3 130.41 122.84 132.42 122.85 130.22 126.3 128.21" style="fill:#333"/><polygon points="122.85 130.22 122.84 132.42 90.98 114.02 90.98 111.82 122.85 130.22" style="fill:#1c1c1c"/><polygon points="126.3 128.21 122.85 130.22 90.98 111.82 94.44 109.82 126.3 128.21" style="fill:#414141"/></g><g style="isolation:isolate"><polygon points="132.93 124.38 132.92 126.58 129.47 128.58 129.47 126.38 132.93 124.38" style="fill:#333"/><polygon points="129.47 126.38 129.47 128.58 97.6 110.18 97.61 107.98 129.47 126.38" style="fill:#1c1c1c"/><polygon points="132.93 124.38 129.47 126.38 97.61 107.98 101.06 105.98 132.93 124.38" style="fill:#414141"/></g><g style="isolation:isolate"><polygon points="146.52 116.48 146.52 118.68 143.06 120.69 143.07 118.49 146.52 116.48" style="fill:#333"/><polygon points="143.07 118.49 143.06 120.69 111.2 102.29 111.2 100.09 143.07 118.49" style="fill:#1c1c1c"/><polygon points="146.52 116.48 143.07 118.49 111.2 100.09 114.66 98.08 146.52 116.48" style="fill:#414141"/></g><g style="isolation:isolate"><polygon points="153.06 112.67 153.05 114.87 149.6 116.88 149.6 114.68 153.06 112.67" style="fill:#333"/><polygon points="149.6 114.68 149.6 116.88 117.73 98.48 117.74 96.28 149.6 114.68" style="fill:#1c1c1c"/><polygon points="153.06 112.67 149.6 114.68 117.74 96.28 121.19 94.27 153.06 112.67" style="fill:#414141"/></g><g style="isolation:isolate"><polygon points="166.82 104.68 166.81 106.88 163.36 108.89 163.36 106.69 166.82 104.68" style="fill:#333"/><polygon points="163.36 106.69 163.36 108.89 131.49 90.49 131.5 88.29 163.36 106.69" style="fill:#1c1c1c"/><polygon points="166.82 104.68 163.36 106.69 131.5 88.29 134.95 86.29 166.82 104.68" style="fill:#414141"/></g><g style="isolation:isolate"><polygon points="173.35 100.88 173.35 103.07 169.9 105.08 169.9 102.88 173.35 100.88" style="fill:#333"/><polygon points="169.9 102.88 169.9 105.08 138.03 86.68 138.04 84.48 169.9 102.88" style="fill:#1c1c1c"/><polygon points="173.35 100.88 169.9 102.88 138.04 84.48 141.49 82.48 173.35 100.88" style="fill:#414141"/></g><g style="isolation:isolate"><polygon points="179.98 97.04 179.97 99.24 176.52 101.24 176.53 99.04 179.98 97.04" style="fill:#333"/><polygon points="176.53 99.04 176.52 101.24 144.65 82.84 144.66 80.64 176.53 99.04" style="fill:#1c1c1c"/><polygon points="179.98 97.04 176.53 99.04 144.66 80.64 148.11 78.64 179.98 97.04" style="fill:#414141"/></g><g style="isolation:isolate"><polygon points="198.07 86.66 198.07 88.86 194.62 90.86 194.62 88.66 198.07 86.66" style="fill:#333"/><polygon points="194.62 88.66 194.62 90.86 162.75 72.47 162.76 70.27 194.62 88.66" style="fill:#1c1c1c"/><polygon points="198.07 86.66 194.62 88.66 162.76 70.27 166.21 68.26 198.07 86.66" style="fill:#414141"/></g><g style="isolation:isolate"><polygon points="204.61 82.85 204.6 85.05 201.15 87.05 201.16 84.86 204.61 82.85" style="fill:#333"/><polygon points="201.16 84.86 201.15 87.05 169.29 68.66 169.29 66.46 201.16 84.86" style="fill:#1c1c1c"/><polygon points="204.61 82.85 201.16 84.86 169.29 66.46 172.74 64.45 204.61 82.85" style="fill:#414141"/></g><g style="isolation:isolate"><polygon points="218.37 74.86 218.36 77.06 214.91 79.07 214.91 76.87 218.37 74.86" style="fill:#333"/><polygon points="214.91 76.87 214.91 79.07 183.04 60.67 183.05 58.47 214.91 76.87" style="fill:#1c1c1c"/><polygon points="218.37 74.86 214.91 76.87 183.05 58.47 186.5 56.46 218.37 74.86" style="fill:#414141"/></g><g style="isolation:isolate"><polygon points="224.91 71.05 224.9 73.25 221.45 75.26 221.45 73.06 224.91 71.05" style="fill:#333"/><polygon points="221.45 73.06 221.45 75.26 189.58 56.86 189.59 54.66 221.45 73.06" style="fill:#1c1c1c"/><polygon points="224.91 71.05 221.45 73.06 189.59 54.66 193.04 52.65 224.91 71.05" style="fill:#414141"/></g><g style="isolation:isolate"><polygon points="231.53 67.21 231.52 69.41 228.07 71.42 228.08 69.22 231.53 67.21" style="fill:#333"/><polygon points="228.08 69.22 228.07 71.42 196.21 53.02 196.21 50.82 228.08 69.22" style="fill:#1c1c1c"/><polygon points="231.53 67.21 228.08 69.22 196.21 50.82 199.66 48.82 231.53 67.21" style="fill:#414141"/></g><g style="isolation:isolate"><polygon points="245.13 59.32 245.12 61.52 241.67 63.52 241.67 61.33 245.13 59.32" style="fill:#333"/><polygon points="241.67 61.33 241.67 63.52 209.8 45.13 209.81 42.93 241.67 61.33" style="fill:#1c1c1c"/><polygon points="245.13 59.32 241.67 61.33 209.81 42.93 213.26 40.92 245.13 59.32" style="fill:#414141"/></g><g style="isolation:isolate"><polygon points="251.66 55.51 251.66 57.71 248.2 59.72 248.21 57.52 251.66 55.51" style="fill:#333"/><polygon points="248.21 57.52 248.2 59.72 216.34 41.32 216.34 39.12 248.21 57.52" style="fill:#1c1c1c"/><polygon points="251.66 55.51 248.21 57.52 216.34 39.12 219.79 37.11 251.66 55.51" style="fill:#414141"/></g><g style="isolation:isolate"><polygon points="265.42 47.52 265.41 49.72 261.96 51.73 261.97 49.53 265.42 47.52" style="fill:#333"/><polygon points="261.97 49.53 261.96 51.73 230.09 33.33 230.1 31.13 261.97 49.53" style="fill:#1c1c1c"/><polygon points="265.42 47.52 261.97 49.53 230.1 31.13 233.55 29.12 265.42 47.52" style="fill:#414141"/></g><g style="isolation:isolate"><polygon points="271.96 43.71 271.95 45.91 268.5 47.92 268.5 45.72 271.96 43.71" style="fill:#333"/><polygon points="268.5 45.72 268.5 47.92 236.63 29.52 236.64 27.32 268.5 45.72" style="fill:#1c1c1c"/><polygon points="271.96 43.71 268.5 45.72 236.64 27.32 240.09 25.32 271.96 43.71" style="fill:#414141"/></g><g style="isolation:isolate"><polygon points="278.58 39.88 278.57 42.08 275.12 44.08 275.13 41.88 278.58 39.88" style="fill:#333"/><polygon points="275.13 41.88 275.12 44.08 243.26 25.68 243.26 23.48 275.13 41.88" style="fill:#1c1c1c"/><polygon points="278.58 39.88 275.13 41.88 243.26 23.48 246.72 21.48 278.58 39.88" style="fill:#414141"/></g><g style="isolation:isolate"><polygon points="321.35 55.72 117.25 174.33 81.91 153.93 286.01 35.32 321.35 55.72" style="fill:#414141"/><polygon points="321.35 55.72 321.3 73.32 117.2 191.93 117.25 174.33 321.35 55.72" style="fill:#333"/><polygon points="117.25 174.33 117.2 191.93 81.86 171.52 81.91 153.93 117.25 174.33" style="fill:#1c1c1c"/></g><path id="SVGID-49" data-name="SVGID" d="M0,162.74l0-17.6c0,3,2,6.05,6,8.36L6,171.1C2,168.8,0,165.77,0,162.74Z" style="fill:#1c1c1c"/><g style="clip-path:url(#clip-path-3)"><g style="isolation:isolate"><path d="M6,153.51,6,171.1c-4-2.31-6-5.34-6-8.36l0-17.6c0,3,2,6.05,6,8.36Z" style="fill:#1c1c1c"/></g></g><polygon points="117.25 174.33 117.2 191.93 87.22 209.35 87.27 191.75 117.25 174.33" style="fill:#333"/><polygon points="72.28 191.75 72.23 209.35 5.99 171.1 6.04 153.51 72.28 191.75" style="fill:#1c1c1c"/><g style="isolation:isolate"><path id="SVGID-50" data-name="SVGID" d="M87.27,191.75l0,17.6a16.52,16.52,0,0,1-15,0l0-17.6A16.51,16.51,0,0,0,87.27,191.75Z" style="fill:#1c1c1c"/><g style="clip-path:url(#clip-path-4)"><g style="isolation:isolate"><path d="M87.27,191.75l0,17.6A14,14,0,0,1,82,211l0-17.6a14,14,0,0,0,5.26-1.66Z" style="fill:#333"/><path d="M82,193.42,82,211a16.23,16.23,0,0,1-9.73-1.66l0-17.6A16.24,16.24,0,0,0,82,193.42Z" style="fill:#1c1c1c"/></g></g></g><path d="M117.25,174.33l-30,17.43a16.52,16.52,0,0,1-15,0L6,153.51a15.82,15.82,0,0,1-3.15-2.34,10.31,10.31,0,0,1-1.94-2.54c-2.12-4-.46-8.55,5-11.72l23.16-13.46,7.72,4.46L40,129.73Z" style="fill:#414141"/><polygon points="109.27 173.46 76.83 192.35 51.24 177.57 83.67 158.68 109.27 173.46" style="fill:#333"/><polygon points="264.56 85.06 263.19 85.85 208.94 117.17 186.62 104.28 185.25 103.49 240.87 71.38 264.56 85.06" style="fill:#1c1c1c"/><polygon points="263.19 85.85 260.89 87.18 208.94 117.17 188.25 105.22 186.62 104.28 240.87 72.97 263.19 85.85" style="fill:#333"/><polygon points="260.89 87.18 208.94 117.17 188.25 105.22 240.2 75.23 260.89 87.18" style="fill:#56c8e2"/><polygon points="217.04 112.41 214.19 114.05 203.66 107.98 206.52 106.33 217.04 112.41" style="fill:#099db1"/><polygon points="221.83 109.64 218.98 111.29 201.5 101.19 204.35 99.55 221.83 109.64" style="fill:#099db1"/><polygon points="241 98.57 238.14 100.22 227.62 94.15 230.48 92.5 241 98.57" style="fill:#099db1"/><polygon points="245.79 95.81 242.94 97.46 225.45 87.36 228.31 85.72 245.79 95.81" style="fill:#099db1"/><polygon points="231.42 104.11 228.56 105.75 222.05 102 224.91 100.35 231.42 104.11" style="fill:#099db1"/><polygon points="226.63 106.87 223.77 108.52 210.75 101 213.6 99.36 226.63 106.87" style="fill:#099db1"/><polygon points="236.21 101.34 233.35 102.99 230.78 101.5 233.64 99.86 236.21 101.34" style="fill:#099db1"/><polygon points="212.25 115.17 209.4 116.82 206.83 115.34 209.68 113.69 212.25 115.17" style="fill:#099db1"/><polygon points="260.14 87.52 257.29 89.17 246.76 83.09 249.62 81.44 260.14 87.52" style="fill:#099db1"/><polygon points="250.56 93.05 247.7 94.7 241.19 90.94 244.05 89.29 250.56 93.05" style="fill:#099db1"/><polygon points="255.35 90.29 252.49 91.93 249.93 90.45 252.78 88.8 255.35 90.29" style="fill:#099db1"/><g style="isolation:isolate"><path id="SVGID-51" data-name="SVGID" d="M195.51,122.22v1.1a1.32,1.32,0,0,1-.77,1.08v-1.1A1.31,1.31,0,0,0,195.51,122.22Z" style="fill:#f37021"/><g style="clip-path:url(#clip-path-5)"><g style="isolation:isolate"><path d="M195.51,122.22v1.1a1.05,1.05,0,0,1-.28.69v-1.1a1.06,1.06,0,0,0,.28-.69Z" style="fill:#f37021"/><path d="M195.23,122.91V124a1.91,1.91,0,0,1-.48.39v-1.1a1.94,1.94,0,0,0,.48-.39Z" style="fill:#f37021"/></g></g></g><polygon points="194.74 123.3 194.74 124.4 190.51 126.86 190.51 125.76 194.74 123.3" style="fill:#f37021"/><g style="isolation:isolate"><path id="SVGID-52" data-name="SVGID" d="M186,125.77v-1.1a1.32,1.32,0,0,0,.78,1.09,4.14,4.14,0,0,0,3.75,0v1.1a4.14,4.14,0,0,1-3.74,0A1.32,1.32,0,0,1,186,125.77Z" style="fill:#f37021"/><g style="clip-path:url(#clip-path-6)"><g style="isolation:isolate"><path d="M190.51,125.76v1.1a3.49,3.49,0,0,1-1.31.41v-1.1a3.5,3.5,0,0,0,1.31-.41Z" style="fill:#f37021"/><path d="M189.2,126.17v1.1a4.07,4.07,0,0,1-2.43-.41,1.32,1.32,0,0,1-.78-1.09v-1.1a1.32,1.32,0,0,0,.78,1.09,4.06,4.06,0,0,0,2.43.41Z" style="fill:#f37021"/></g></g></g><path d="M194.73,121.13a1.15,1.15,0,0,1,0,2.17l-4.23,2.46a4.14,4.14,0,0,1-3.75,0,1.15,1.15,0,0,1,0-2.17l4.23-2.46A4.14,4.14,0,0,1,194.73,121.13Z" style="fill:#fbad18"/><g style="isolation:isolate"><g style="isolation:isolate"><g style="clip-path:url(#clip-path-7)"><g style="isolation:isolate"><path d="M185.1,128.27v1.1a1.05,1.05,0,0,1-.28.69V129a1,1,0,0,0,.28-.69Z" style="fill:#1c1c1c"/><path d="M184.81,129v1.1a1.93,1.93,0,0,1-.48.39v-1.1a1.89,1.89,0,0,0,.48-.39Z" style="fill:#333"/></g></g></g><polygon points="184.33 129.35 184.33 130.45 180.1 132.91 180.1 131.81 184.33 129.35" style="fill:#1a1a23"/><g style="isolation:isolate"><g style="clip-path:url(#clip-path-8)"><g style="isolation:isolate"><path d="M180.1,131.81v1.1a3.48,3.48,0,0,1-1.31.41v-1.1a3.49,3.49,0,0,0,1.31-.41Z" style="fill:#333"/><path d="M178.79,132.22v1.1a4.06,4.06,0,0,1-2.43-.41,1.32,1.32,0,0,1-.78-1.09v-1.1a1.32,1.32,0,0,0,.78,1.09,4.07,4.07,0,0,0,2.43.41Z" style="fill:#1c1c1c"/></g></g></g><path d="M184.32,127.18a1.15,1.15,0,0,1,0,2.17l-4.23,2.46a4.14,4.14,0,0,1-3.75,0,1.15,1.15,0,0,1,0-2.17l4.23-2.46A4.14,4.14,0,0,1,184.32,127.18Z" style="fill:#333"/></g><g style="isolation:isolate"><g style="isolation:isolate"><g style="clip-path:url(#clip-path-9)"><g style="isolation:isolate"><path d="M174.69,134.33v1.1a1.05,1.05,0,0,1-.28.69V135a1.05,1.05,0,0,0,.28-.69Z" style="fill:#1c1c1c"/><path d="M174.4,135v1.1a1.91,1.91,0,0,1-.48.39v-1.1a1.93,1.93,0,0,0,.48-.39Z" style="fill:#333"/></g></g></g><polygon points="173.92 135.4 173.92 136.5 169.69 138.96 169.69 137.86 173.92 135.4" style="fill:#1a1a23"/><g style="isolation:isolate"><g style="clip-path:url(#clip-path-10)"><g style="isolation:isolate"><path d="M169.69,137.86V139a3.5,3.5,0,0,1-1.31.41v-1.1a3.49,3.49,0,0,0,1.31-.41Z" style="fill:#333"/><path d="M168.38,138.27v1.1a4.07,4.07,0,0,1-2.43-.41,1.32,1.32,0,0,1-.78-1.09v-1.1a1.32,1.32,0,0,0,.78,1.09,4.06,4.06,0,0,0,2.43.41Z" style="fill:#1c1c1c"/></g></g></g><path d="M173.91,133.23a1.15,1.15,0,0,1,0,2.17l-4.23,2.46a4.14,4.14,0,0,1-3.75,0,1.15,1.15,0,0,1,0-2.17l4.23-2.46A4.14,4.14,0,0,1,173.91,133.23Z" style="fill:#333"/></g><g style="isolation:isolate"><g style="isolation:isolate"><g style="clip-path:url(#clip-path-11)"><g style="isolation:isolate"><path d="M164.27,140.38v1.1a1.05,1.05,0,0,1-.28.69v-1.1a1.05,1.05,0,0,0,.28-.69Z" style="fill:#1c1c1c"/><path d="M164,141.07v1.1a1.9,1.9,0,0,1-.48.39v-1.1a1.89,1.89,0,0,0,.48-.39Z" style="fill:#333"/></g></g></g><polygon points="163.51 141.45 163.5 142.55 159.27 145.01 159.28 143.91 163.51 141.45" style="fill:#1a1a23"/><g style="isolation:isolate"><g style="clip-path:url(#clip-path-12)"><g style="isolation:isolate"><path d="M159.28,143.91V145a3.49,3.49,0,0,1-1.31.41v-1.1a3.48,3.48,0,0,0,1.31-.41Z" style="fill:#333"/><path d="M158,144.33v1.1a4.07,4.07,0,0,1-2.43-.41,1.32,1.32,0,0,1-.78-1.09v-1.1a1.32,1.32,0,0,0,.78,1.09,4.06,4.06,0,0,0,2.43.41Z" style="fill:#1c1c1c"/></g></g></g><path d="M163.5,139.28a1.15,1.15,0,0,1,0,2.17l-4.23,2.46a4.14,4.14,0,0,1-3.74,0,1.15,1.15,0,0,1,0-2.17l4.23-2.46A4.15,4.15,0,0,1,163.5,139.28Z" style="fill:#333"/></g><g style="isolation:isolate"><g style="isolation:isolate"><g style="clip-path:url(#clip-path-13)"><g style="isolation:isolate"><path d="M281.1,56.4v.93a.89.89,0,0,1-.24.59V57a.89.89,0,0,0,.24-.59Z" style="fill:#1c1c1c"/><path d="M280.85,57v.93a1.62,1.62,0,0,1-.41.33v-.93a1.61,1.61,0,0,0,.41-.33Z" style="fill:#333"/></g></g></g><polygon points="280.44 57.31 280.44 58.25 276.85 60.34 276.85 59.4 280.44 57.31" style="fill:#1a1a23"/><g style="isolation:isolate"><g style="clip-path:url(#clip-path-14)"><g style="isolation:isolate"><path d="M276.85,59.4v.93a3,3,0,0,1-1.11.35v-.93a3,3,0,0,0,1.11-.35Z" style="fill:#333"/><path d="M275.73,59.75v.93a3.45,3.45,0,0,1-2.07-.35,1.12,1.12,0,0,1-.66-.93v-.93a1.12,1.12,0,0,0,.66.93,3.46,3.46,0,0,0,2.07.35Z" style="fill:#1c1c1c"/></g></g></g><path d="M280.43,55.47a1,1,0,0,1,0,1.84l-3.59,2.09a3.52,3.52,0,0,1-3.18,0,1,1,0,0,1,0-1.84l3.59-2.09A3.52,3.52,0,0,1,280.43,55.47Z" style="fill:#333"/></g><g style="isolation:isolate"><g style="isolation:isolate"><g style="clip-path:url(#clip-path-15)"><g style="isolation:isolate"><path d="M272.25,61.54v.93a.89.89,0,0,1-.24.59v-.93a.89.89,0,0,0,.24-.59Z" style="fill:#1c1c1c"/><path d="M272,62.12v.93a1.61,1.61,0,0,1-.41.33v-.93a1.59,1.59,0,0,0,.41-.33Z" style="fill:#333"/></g></g></g><polygon points="271.6 62.45 271.6 63.39 268 65.48 268 64.54 271.6 62.45" style="fill:#1a1a23"/><g style="isolation:isolate"><g style="clip-path:url(#clip-path-16)"><g style="isolation:isolate"><path d="M268,64.54v.93a3,3,0,0,1-1.12.35v-.93a3,3,0,0,0,1.11-.35Z" style="fill:#333"/><path d="M266.89,64.89v.93a3.46,3.46,0,0,1-2.07-.35,1.12,1.12,0,0,1-.66-.93v-.93a1.12,1.12,0,0,0,.66.93,3.45,3.45,0,0,0,2.07.35Z" style="fill:#1c1c1c"/></g></g></g><path d="M271.59,60.61a1,1,0,0,1,0,1.84L268,64.54a3.52,3.52,0,0,1-3.18,0,1,1,0,0,1,0-1.84l3.59-2.09A3.52,3.52,0,0,1,271.59,60.61Z" style="fill:#333"/></g><g style="isolation:isolate"><g style="isolation:isolate"><g style="clip-path:url(#clip-path-17)"><g style="isolation:isolate"><path d="M263.4,66.68v.93a.89.89,0,0,1-.24.59v-.93a.89.89,0,0,0,.24-.59Z" style="fill:#1c1c1c"/><path d="M263.16,67.26v.93a1.62,1.62,0,0,1-.41.33v-.93a1.61,1.61,0,0,0,.41-.33Z" style="fill:#333"/></g></g></g><polygon points="262.75 67.59 262.75 68.53 259.15 70.62 259.16 69.68 262.75 67.59" style="fill:#1a1a23"/><g style="isolation:isolate"><g style="clip-path:url(#clip-path-18)"><g style="isolation:isolate"><path d="M259.16,69.68v.93A3,3,0,0,1,258,71V70a3,3,0,0,0,1.11-.35Z" style="fill:#333"/><path d="M258,70V71a3.46,3.46,0,0,1-2.07-.35,1.12,1.12,0,0,1-.66-.93v-.93a1.13,1.13,0,0,0,.66.93A3.46,3.46,0,0,0,258,70Z" style="fill:#1c1c1c"/></g></g></g><path d="M262.74,65.75a1,1,0,0,1,0,1.84l-3.6,2.09a3.52,3.52,0,0,1-3.18,0,1,1,0,0,1,0-1.84l3.6-2.09A3.52,3.52,0,0,1,262.74,65.75Z" style="fill:#333"/></g><g style="isolation:isolate"><g style="isolation:isolate"><g style="clip-path:url(#clip-path-19)"><g style="isolation:isolate"><path d="M287.77,60.53v.93a.89.89,0,0,1-.24.59v-.93a.89.89,0,0,0,.24-.59Z" style="fill:#1c1c1c"/><path d="M287.53,61.12V62a1.6,1.6,0,0,1-.41.33v-.93a1.62,1.62,0,0,0,.41-.33Z" style="fill:#333"/></g></g></g><polygon points="287.12 61.45 287.11 62.38 283.52 64.47 283.52 63.53 287.12 61.45" style="fill:#1a1a23"/><g style="isolation:isolate"><g style="clip-path:url(#clip-path-20)"><g style="isolation:isolate"><path d="M283.52,63.53v.93a3,3,0,0,1-1.12.35v-.93a3,3,0,0,0,1.11-.35Z" style="fill:#333"/><path d="M282.41,63.88v.93a3.45,3.45,0,0,1-2.07-.35,1.12,1.12,0,0,1-.66-.93v-.93a1.12,1.12,0,0,0,.66.93,3.45,3.45,0,0,0,2.07.35Z" style="fill:#1c1c1c"/></g></g></g><path d="M287.11,59.6a1,1,0,0,1,0,1.84l-3.59,2.09a3.52,3.52,0,0,1-3.18,0,1,1,0,0,1,0-1.84l3.59-2.09A3.52,3.52,0,0,1,287.11,59.6Z" style="fill:#333"/></g><g style="isolation:isolate"><g style="isolation:isolate"><g style="clip-path:url(#clip-path-21)"><g style="isolation:isolate"><path d="M278.92,65.67v.93a.89.89,0,0,1-.24.59v-.93a.89.89,0,0,0,.24-.59Z" style="fill:#1c1c1c"/><path d="M278.68,66.26v.93a1.61,1.61,0,0,1-.41.33v-.93a1.6,1.6,0,0,0,.41-.33Z" style="fill:#333"/></g></g></g><polygon points="278.27 66.58 278.27 67.52 274.67 69.61 274.68 68.67 278.27 66.58" style="fill:#1a1a23"/><g style="isolation:isolate"><g style="clip-path:url(#clip-path-22)"><g style="isolation:isolate"><path d="M274.68,68.67v.93a3,3,0,0,1-1.11.35V69a3,3,0,0,0,1.12-.35Z" style="fill:#333"/><path d="M273.56,69V70a3.45,3.45,0,0,1-2.07-.35,1.13,1.13,0,0,1-.66-.93v-.93a1.12,1.12,0,0,0,.66.93,3.46,3.46,0,0,0,2.07.35Z" style="fill:#1c1c1c"/></g></g></g><path d="M278.26,64.74a1,1,0,0,1,0,1.84l-3.59,2.09a3.52,3.52,0,0,1-3.18,0,1,1,0,0,1,0-1.84l3.59-2.09A3.52,3.52,0,0,1,278.26,64.74Z" style="fill:#333"/></g><g style="isolation:isolate"><g style="isolation:isolate"><g style="clip-path:url(#clip-path-23)"><g style="isolation:isolate"><path d="M270.08,70.81v.93a.89.89,0,0,1-.24.59V71.4a.9.9,0,0,0,.24-.59Z" style="fill:#1c1c1c"/><path d="M269.84,71.4v.93a1.63,1.63,0,0,1-.41.33v-.93a1.63,1.63,0,0,0,.41-.33Z" style="fill:#333"/></g></g></g><polygon points="269.43 71.72 269.42 72.66 265.83 74.75 265.83 73.81 269.43 71.72" style="fill:#1a1a23"/><g style="isolation:isolate"><g style="clip-path:url(#clip-path-24)"><g style="isolation:isolate"><path d="M265.83,73.81v.93a3,3,0,0,1-1.11.35v-.93a3,3,0,0,0,1.11-.35Z" style="fill:#333"/><path d="M264.72,74.17v.93a3.45,3.45,0,0,1-2.07-.35,1.12,1.12,0,0,1-.66-.93v-.93a1.12,1.12,0,0,0,.66.93,3.45,3.45,0,0,0,2.07.35Z" style="fill:#1c1c1c"/></g></g></g><path d="M269.42,69.88a1,1,0,0,1,0,1.84l-3.6,2.09a3.52,3.52,0,0,1-3.18,0,1,1,0,0,1,0-1.84l3.6-2.09A3.52,3.52,0,0,1,269.42,69.88Z" style="fill:#333"/></g><g style="isolation:isolate"><g style="isolation:isolate"><g style="clip-path:url(#clip-path-25)"><g style="isolation:isolate"><path d="M294.93,64.74v.93a.89.89,0,0,1-.24.59v-.93a.9.9,0,0,0,.24-.59Z" style="fill:#1c1c1c"/><path d="M294.69,65.33v.93a1.63,1.63,0,0,1-.41.33v-.93a1.6,1.6,0,0,0,.41-.33Z" style="fill:#333"/></g></g></g><polygon points="294.28 65.66 294.28 66.59 290.68 68.68 290.69 67.74 294.28 65.66" style="fill:#1a1a23"/><g style="isolation:isolate"><g style="clip-path:url(#clip-path-26)"><g style="isolation:isolate"><path d="M290.69,67.74v.93a3,3,0,0,1-1.11.35v-.93a3,3,0,0,0,1.12-.35Z" style="fill:#333"/><path d="M289.57,68.09V69a3.45,3.45,0,0,1-2.07-.35,1.12,1.12,0,0,1-.66-.93v-.93a1.12,1.12,0,0,0,.66.93,3.46,3.46,0,0,0,2.07.35Z" style="fill:#1c1c1c"/></g></g></g><path d="M294.27,63.81a1,1,0,0,1,0,1.84l-3.59,2.09a3.52,3.52,0,0,1-3.18,0,1,1,0,0,1,0-1.84l3.59-2.09A3.52,3.52,0,0,1,294.27,63.81Z" style="fill:#333"/></g><g style="isolation:isolate"><g style="isolation:isolate"><g style="clip-path:url(#clip-path-27)"><g style="isolation:isolate"><path d="M286.09,69.88v.93a.89.89,0,0,1-.24.59v-.93a.89.89,0,0,0,.24-.59Z" style="fill:#1c1c1c"/><path d="M285.84,70.47v.93a1.62,1.62,0,0,1-.41.33v-.93a1.61,1.61,0,0,0,.41-.33Z" style="fill:#333"/></g></g></g><polygon points="285.43 70.79 285.43 71.73 281.84 73.82 281.84 72.88 285.43 70.79" style="fill:#1a1a23"/><g style="isolation:isolate"><g style="clip-path:url(#clip-path-28)"><g style="isolation:isolate"><path d="M281.84,72.88v.93a3,3,0,0,1-1.11.35v-.93a3,3,0,0,0,1.11-.35Z" style="fill:#333"/><path d="M280.73,73.24v.93a3.46,3.46,0,0,1-2.07-.35,1.12,1.12,0,0,1-.66-.93V72a1.12,1.12,0,0,0,.66.93,3.45,3.45,0,0,0,2.07.35Z" style="fill:#1c1c1c"/></g></g></g><path d="M285.42,69a1,1,0,0,1,0,1.84l-3.59,2.09a3.52,3.52,0,0,1-3.18,0,1,1,0,0,1,0-1.84L282.24,69A3.52,3.52,0,0,1,285.42,69Z" style="fill:#333"/></g><g style="isolation:isolate"><g style="isolation:isolate"><g style="clip-path:url(#clip-path-29)"><g style="isolation:isolate"><path d="M277.24,75V76a.89.89,0,0,1-.24.59v-.93a.89.89,0,0,0,.24-.59Z" style="fill:#1c1c1c"/><path d="M277,75.61v.93a1.62,1.62,0,0,1-.41.33v-.93a1.61,1.61,0,0,0,.41-.33Z" style="fill:#333"/></g></g></g><polygon points="276.59 75.94 276.59 76.87 272.99 78.96 272.99 78.02 276.59 75.94" style="fill:#1a1a23"/><g style="isolation:isolate"><g style="clip-path:url(#clip-path-30)"><g style="isolation:isolate"><path d="M273,78V79a3,3,0,0,1-1.11.35v-.93A3,3,0,0,0,273,78Z" style="fill:#333"/><path d="M271.88,78.38v.93a3.45,3.45,0,0,1-2.07-.35,1.12,1.12,0,0,1-.66-.93V77.1a1.12,1.12,0,0,0,.66.93,3.46,3.46,0,0,0,2.07.35Z" style="fill:#1c1c1c"/></g></g></g><path d="M276.58,74.09a1,1,0,0,1,0,1.84L273,78a3.52,3.52,0,0,1-3.18,0,1,1,0,0,1,0-1.84l3.6-2.09A3.52,3.52,0,0,1,276.58,74.09Z" style="fill:#333"/></g><g style="isolation:isolate"><g style="isolation:isolate"><g style="clip-path:url(#clip-path-31)"><g style="isolation:isolate"><path d="M166,121.46l0,2.41a3.05,3.05,0,0,1-.82,2l0-2.41a3.06,3.06,0,0,0,.82-2Z" style="fill:#1c1c1c"/><path d="M165.14,123.46l0,2.41a5.6,5.6,0,0,1-1.42,1.13,10.18,10.18,0,0,1-3.83,1.21l0-2.41a10.18,10.18,0,0,0,3.83-1.21,5.59,5.59,0,0,0,1.42-1.13Z" style="fill:#1c1c1c"/><path d="M159.9,125.8l0,2.41a11.8,11.8,0,0,1-7.07-1.21,3.86,3.86,0,0,1-2.27-3.18l0-2.41a3.86,3.86,0,0,0,2.28,3.18,11.8,11.8,0,0,0,7.07,1.21Z" style="fill:#1c1c1c"/></g></g></g><path d="M163.69,118.28c3,1.74,3,4.57,0,6.31a12,12,0,0,1-10.9,0c-3-1.74-3-4.57,0-6.32A12,12,0,0,1,163.69,118.28Z" style="fill:#333"/></g><g style="isolation:isolate"><g style="isolation:isolate"><g style="clip-path:url(#clip-path-32)"><g style="isolation:isolate"><path d="M182.7,111.79l0,2.41a3.06,3.06,0,0,1-.82,2l0-2.41a3.05,3.05,0,0,0,.82-2Z" style="fill:#1c1c1c"/><path d="M181.88,113.79l0,2.41a5.61,5.61,0,0,1-1.42,1.14,10.18,10.18,0,0,1-3.83,1.21l0-2.41a10.17,10.17,0,0,0,3.83-1.21,5.6,5.6,0,0,0,1.42-1.13Z" style="fill:#1c1c1c"/><path d="M176.63,116.13l0,2.41a11.81,11.81,0,0,1-7.07-1.21,3.86,3.86,0,0,1-2.27-3.18l0-2.41a3.86,3.86,0,0,0,2.27,3.18,11.8,11.8,0,0,0,7.07,1.21Z" style="fill:#1c1c1c"/></g></g></g><path d="M180.43,108.61c3,1.74,3,4.57,0,6.31a12,12,0,0,1-10.9,0c-3-1.74-3-4.57,0-6.32A12,12,0,0,1,180.43,108.61Z" style="fill:#333"/></g><g style="isolation:isolate"><g style="isolation:isolate"><g style="clip-path:url(#clip-path-33)"><g style="isolation:isolate"><path d="M60,154.9l-.06,3.32A4.21,4.21,0,0,1,58.81,161l.06-3.32A4.21,4.21,0,0,0,60,154.9Z" style="fill:#1c1c1c"/><path d="M58.87,157.66,58.81,161a7.72,7.72,0,0,1-2,1.56,14,14,0,0,1-5.27,1.67l.06-3.32a14,14,0,0,0,5.27-1.67,7.69,7.69,0,0,0,2-1.56Z" style="fill:#1c1c1c"/><path d="M51.64,160.89l-.06,3.32a16.26,16.26,0,0,1-9.75-1.66c-2.09-1.21-3.14-2.8-3.13-4.38l.06-3.32c0,1.58,1,3.17,3.14,4.38a16.26,16.26,0,0,0,9.75,1.66Z" style="fill:#1c1c1c"/></g></g></g><path d="M56.87,150.53c4.16,2.4,4.18,6.3,0,8.7a16.56,16.56,0,0,1-15,0c-4.16-2.4-4.18-6.3,0-8.7A16.55,16.55,0,0,1,56.87,150.53Z" style="fill:#333"/></g><g style="isolation:isolate"><g style="isolation:isolate"><g style="clip-path:url(#clip-path-34)"><g style="isolation:isolate"><path d="M35.54,141.07l-.06,3.32a4.21,4.21,0,0,1-1.13,2.76l.06-3.32a4.21,4.21,0,0,0,1.13-2.76Z" style="fill:#1c1c1c"/><path d="M34.41,143.83l-.06,3.32a7.7,7.7,0,0,1-2,1.56,14,14,0,0,1-5.27,1.67l.06-3.32a14,14,0,0,0,5.27-1.67,7.71,7.71,0,0,0,2-1.56Z" style="fill:#1c1c1c"/><path d="M27.18,147.06l-.06,3.32a16.26,16.26,0,0,1-9.75-1.66c-2.09-1.21-3.14-2.8-3.13-4.38L14.3,141c0,1.58,1,3.17,3.14,4.38a16.26,16.26,0,0,0,9.74,1.66Z" style="fill:#1c1c1c"/></g></g></g><path d="M32.41,136.7c4.16,2.4,4.18,6.29,0,8.7a16.55,16.55,0,0,1-15,0c-4.16-2.4-4.18-6.3,0-8.7A16.55,16.55,0,0,1,32.41,136.7Z" style="fill:#333"/></g><path d="M106.26,153.48a5.85,5.85,0,0,1-2.86-.68,1.84,1.84,0,0,1,0-3.46,6.34,6.34,0,0,1,5.73,0,1.84,1.84,0,0,1,0,3.46A5.86,5.86,0,0,1,106.26,153.48Zm0-4.56a5.58,5.58,0,0,0-2.73.65,1.57,1.57,0,0,0,0,3,6,6,0,0,0,5.46,0,1.57,1.57,0,0,0,0-3A5.58,5.58,0,0,0,106.26,148.92Z" style="fill:#e1e2e1"/><path d="M117.21,147.16a5.86,5.86,0,0,1-2.86-.68,1.84,1.84,0,0,1,0-3.46,6.34,6.34,0,0,1,5.73,0,1.84,1.84,0,0,1,0,3.46A5.85,5.85,0,0,1,117.21,147.16Zm0-4.56a5.58,5.58,0,0,0-2.73.65,1.57,1.57,0,0,0,0,3,6,6,0,0,0,5.46,0,1.57,1.57,0,0,0,0-3A5.59,5.59,0,0,0,117.21,142.6Z" style="fill:#e1e2e1"/><path d="M128.15,140.84a5.85,5.85,0,0,1-2.86-.68,1.84,1.84,0,0,1,0-3.46,6.34,6.34,0,0,1,5.73,0,1.84,1.84,0,0,1,0,3.46A5.86,5.86,0,0,1,128.15,140.84Zm0-4.56a5.59,5.59,0,0,0-2.73.65,1.57,1.57,0,0,0,0,3,6,6,0,0,0,5.46,0,1.57,1.57,0,0,0,0-3A5.59,5.59,0,0,0,128.15,136.28Z" style="fill:#e1e2e1"/><path d="M118.26,154.2a5.85,5.85,0,0,1-2.86-.68,1.84,1.84,0,0,1,0-3.46,6.34,6.34,0,0,1,5.73,0,1.84,1.84,0,0,1,0,3.46A5.85,5.85,0,0,1,118.26,154.2Zm0-4.57a5.58,5.58,0,0,0-2.73.65,1.57,1.57,0,0,0,0,3,6,6,0,0,0,5.46,0,1.57,1.57,0,0,0,0-3A5.58,5.58,0,0,0,118.26,149.63Z" style="fill:#e1e2e1"/><path d="M129.2,147.88a5.86,5.86,0,0,1-2.86-.68,1.84,1.84,0,0,1,0-3.46,6.34,6.34,0,0,1,5.73,0,1.84,1.84,0,0,1,0,3.46A5.86,5.86,0,0,1,129.2,147.88Zm0-4.56a5.58,5.58,0,0,0-2.73.65,1.57,1.57,0,0,0,0,3,6,6,0,0,0,5.46,0,1.57,1.57,0,0,0,0-3A5.58,5.58,0,0,0,129.2,143.31Z" style="fill:#e1e2e1"/><g style="isolation:isolate"><g style="isolation:isolate"><g style="clip-path:url(#clip-path-35)"><g style="isolation:isolate"><path d="M109.07,145.76l0,5.21a1.1,1.1,0,0,1-.3.73l0-5.21a1.1,1.1,0,0,0,.3-.73Z" style="fill:#1c1c1c"/><path d="M108.77,146.48l0,5.21a2,2,0,0,1-.51.41,3.7,3.7,0,0,1-1.39.44l0-5.21a3.7,3.7,0,0,0,1.39-.44,2,2,0,0,0,.51-.41Z" style="fill:#333"/><path d="M106.87,147.33l0,5.21a4.28,4.28,0,0,1-2.57-.44,1.4,1.4,0,0,1-.82-1.15l0-5.21a1.4,1.4,0,0,0,.82,1.15,4.27,4.27,0,0,0,2.57.44Z" style="fill:#1c1c1c"/></g></g></g><path d="M108.24,144.61a1.21,1.21,0,0,1,0,2.29,4.36,4.36,0,0,1-4,0,1.21,1.21,0,0,1,0-2.29A4.36,4.36,0,0,1,108.24,144.61Z" style="fill:#333"/></g><g style="isolation:isolate"><g style="isolation:isolate"><g style="clip-path:url(#clip-path-36)"><g style="isolation:isolate"><path d="M120,139.44l0,5.21a1.11,1.11,0,0,1-.3.73l0-5.21a1.11,1.11,0,0,0,.3-.73Z" style="fill:#1c1c1c"/><path d="M119.71,140.17l0,5.21a2.06,2.06,0,0,1-.51.41,3.69,3.69,0,0,1-1.39.44l0-5.21a3.7,3.7,0,0,0,1.39-.44,2,2,0,0,0,.51-.41Z" style="fill:#333"/><path d="M117.81,141l0,5.21a4.28,4.28,0,0,1-2.57-.44,1.4,1.4,0,0,1-.83-1.15l0-5.21a1.4,1.4,0,0,0,.82,1.15,4.28,4.28,0,0,0,2.57.44Z" style="fill:#1c1c1c"/></g></g></g><path d="M119.19,138.29a1.21,1.21,0,0,1,0,2.29,4.36,4.36,0,0,1-4,0,1.21,1.21,0,0,1,0-2.29A4.35,4.35,0,0,1,119.19,138.29Z" style="fill:#333"/></g><g style="isolation:isolate"><g style="isolation:isolate"><g style="clip-path:url(#clip-path-37)"><g style="isolation:isolate"><path d="M131,133.28l0,5.21a1.11,1.11,0,0,1-.3.73l0-5.21a1.11,1.11,0,0,0,.3-.73Z" style="fill:#1c1c1c"/><path d="M130.66,134l0,5.21a2.05,2.05,0,0,1-.51.41,3.69,3.69,0,0,1-1.39.44l0-5.21a3.7,3.7,0,0,0,1.39-.44,2,2,0,0,0,.51-.41Z" style="fill:#333"/><path d="M128.76,134.85l0,5.21a4.28,4.28,0,0,1-2.57-.44,1.4,1.4,0,0,1-.82-1.15l0-5.21a1.4,1.4,0,0,0,.82,1.15,4.29,4.29,0,0,0,2.57.44Z" style="fill:#1c1c1c"/></g></g></g><path d="M130.13,132.12a1.21,1.21,0,0,1,0,2.29,4.36,4.36,0,0,1-4,0,1.21,1.21,0,0,1,0-2.29A4.36,4.36,0,0,1,130.13,132.12Z" style="fill:#333"/></g><g style="isolation:isolate"><g style="isolation:isolate"><g style="clip-path:url(#clip-path-38)"><g style="isolation:isolate"><path d="M121.06,146.56l0,5.21a1.1,1.1,0,0,1-.3.73l0-5.21a1.11,1.11,0,0,0,.3-.73Z" style="fill:#1c1c1c"/><path d="M120.76,147.29l0,5.21a2,2,0,0,1-.51.41,3.67,3.67,0,0,1-1.39.44l0-5.21a3.7,3.7,0,0,0,1.39-.44,2,2,0,0,0,.51-.41Z" style="fill:#333"/><path d="M118.86,148.14l0,5.21a4.28,4.28,0,0,1-2.57-.44,1.4,1.4,0,0,1-.82-1.15l0-5.21a1.4,1.4,0,0,0,.83,1.15,4.28,4.28,0,0,0,2.56.44Z" style="fill:#1c1c1c"/></g></g></g><path d="M120.24,145.41a1.21,1.21,0,0,1,0,2.29,4.36,4.36,0,0,1-4,0,1.21,1.21,0,0,1,0-2.29A4.36,4.36,0,0,1,120.24,145.41Z" style="fill:#333"/></g><g style="isolation:isolate"><g style="isolation:isolate"><g style="clip-path:url(#clip-path-39)"><g style="isolation:isolate"><path d="M132,140.25l0,5.21a1.11,1.11,0,0,1-.3.73V141a1.11,1.11,0,0,0,.3-.73Z" style="fill:#1c1c1c"/><path d="M131.71,141v5.21a2,2,0,0,1-.51.41,3.7,3.7,0,0,1-1.39.44l0-5.21a3.7,3.7,0,0,0,1.39-.44,2,2,0,0,0,.51-.41Z" style="fill:#333"/><path d="M129.81,141.83l0,5.21a4.27,4.27,0,0,1-2.57-.44,1.4,1.4,0,0,1-.82-1.15l0-5.21a1.4,1.4,0,0,0,.82,1.15,4.29,4.29,0,0,0,2.57.44Z" style="fill:#1c1c1c"/></g></g></g><path d="M131.18,139.1a1.21,1.21,0,0,1,0,2.29,4.36,4.36,0,0,1-4,0,1.21,1.21,0,0,1,0-2.29A4.35,4.35,0,0,1,131.18,139.1Z" style="fill:#333"/></g><path d="M92,182.34a1.79,1.79,0,0,1-1.61,0l-22-12.7a.49.49,0,0,1,0-.93,1.79,1.79,0,0,1,1.61,0l22,12.7A.49.49,0,0,1,92,182.34Z" style="fill:#1c1c1c"/><path d="M98.09,178.92a1.79,1.79,0,0,1-1.61,0l-22-12.7a.49.49,0,0,1,0-.93,1.79,1.79,0,0,1,1.61,0l22,12.7A.49.49,0,0,1,98.09,178.92Z" style="fill:#1c1c1c"/><path d="M104.29,175.32a1.79,1.79,0,0,1-1.61,0l-22-12.7a.49.49,0,0,1,0-.93,1.79,1.79,0,0,1,1.61,0l22,12.7A.49.49,0,0,1,104.29,175.32Z" style="fill:#1c1c1c"/><path d="M79.63,189.35a1.79,1.79,0,0,1-1.61,0l-22-12.7a.49.49,0,0,1,0-.93,1.79,1.79,0,0,1,1.61,0l22,12.7A.49.49,0,0,1,79.63,189.35Z" style="fill:#1c1c1c"/><path d="M85.76,185.92a1.79,1.79,0,0,1-1.61,0l-22-12.7a.49.49,0,0,1,0-.93,1.79,1.79,0,0,1,1.61,0l22,12.7A.49.49,0,0,1,85.76,185.92Z" style="fill:#1c1c1c"/><g style="isolation:isolate"><g style="isolation:isolate"><path id="SVGID-53" data-name="SVGID" d="M103.43,172.39V173a.75.75,0,0,1-.44.61V173A.75.75,0,0,0,103.43,172.39Z" style="fill:#f1f1f4"/><g style="clip-path:url(#clip-path-40)"><g style="isolation:isolate"><path d="M103.43,172.39V173a.6.6,0,0,1-.16.39v-.63a.6.6,0,0,0,.16-.39Z" style="fill:#f1f1f4"/><path d="M103.27,172.78v.63a1.11,1.11,0,0,1-.28.22V173a1.1,1.1,0,0,0,.28-.22Z" style="fill:#f1f1f4"/></g></g></g><polygon points="102.99 173 102.99 173.63 100.57 175.04 100.58 174.41 102.99 173" style="fill:#f1f1f4"/><g style="isolation:isolate"><path id="SVGID-54" data-name="SVGID" d="M98,174.42v-.63a.76.76,0,0,0,.45.62,2.37,2.37,0,0,0,2.14,0V175a2.37,2.37,0,0,1-2.14,0A.76.76,0,0,1,98,174.42Z" style="fill:#f1f1f4"/><g style="clip-path:url(#clip-path-41)"><g style="isolation:isolate"><path d="M100.58,174.41V175a2,2,0,0,1-.75.24v-.63a2,2,0,0,0,.75-.24Z" style="fill:#f1f1f4"/><path d="M99.83,174.65v.63a2.33,2.33,0,0,1-1.39-.24.76.76,0,0,1-.45-.62v-.63a.76.76,0,0,0,.45.62,2.33,2.33,0,0,0,1.39.24Z" style="fill:#f1f1f4"/></g></g></g><path d="M103,171.77a.66.66,0,0,1,0,1.24l-2.42,1.41a2.37,2.37,0,0,1-2.14,0,.66.66,0,0,1,0-1.24l2.42-1.41A2.37,2.37,0,0,1,103,171.77Z" style="fill:#fff"/></g><g style="isolation:isolate"><g style="isolation:isolate"><path id="SVGID-55" data-name="SVGID" d="M92.29,172.7v.63a.75.75,0,0,1-.44.62v-.63A.75.75,0,0,0,92.29,172.7Z" style="fill:#f1f1f4"/><g style="clip-path:url(#clip-path-42)"><g style="isolation:isolate"><path d="M92.29,172.7v.63a.6.6,0,0,1-.16.39v-.63a.6.6,0,0,0,.16-.39Z" style="fill:#f1f1f4"/><path d="M92.13,173.1v.63a1.08,1.08,0,0,1-.28.22v-.63a1.08,1.08,0,0,0,.28-.22Z" style="fill:#f1f1f4"/></g></g></g><polygon points="91.86 173.32 91.85 173.95 89.44 175.35 89.44 174.72 91.86 173.32" style="fill:#f1f1f4"/><g style="isolation:isolate"><path id="SVGID-56" data-name="SVGID" d="M86.85,174.73v-.63a.76.76,0,0,0,.45.62,2.37,2.37,0,0,0,2.14,0v.63a2.37,2.37,0,0,1-2.14,0A.76.76,0,0,1,86.85,174.73Z" style="fill:#f1f1f4"/><g style="clip-path:url(#clip-path-43)"><g style="isolation:isolate"><path d="M89.44,174.72v.63a2,2,0,0,1-.75.24V175a2,2,0,0,0,.75-.24Z" style="fill:#f1f1f4"/><path d="M88.69,175v.63a2.33,2.33,0,0,1-1.39-.24.76.76,0,0,1-.45-.62v-.63a.76.76,0,0,0,.45.62,2.32,2.32,0,0,0,1.39.24Z" style="fill:#f1f1f4"/></g></g></g><path d="M91.85,172.08a.66.66,0,0,1,0,1.24l-2.42,1.41a2.37,2.37,0,0,1-2.14,0,.66.66,0,0,1,0-1.24l2.42-1.41A2.36,2.36,0,0,1,91.85,172.08Z" style="fill:#fff"/></g><g style="isolation:isolate"><g style="isolation:isolate"><path id="SVGID-57" data-name="SVGID" d="M75.45,170.17v.63a.75.75,0,0,1-.44.62v-.63A.75.75,0,0,0,75.45,170.17Z" style="fill:#f1f1f4"/><g style="clip-path:url(#clip-path-44)"><g style="isolation:isolate"><path d="M75.45,170.17v.63a.6.6,0,0,1-.16.39v-.63a.6.6,0,0,0,.16-.39Z" style="fill:#f1f1f4"/><path d="M75.29,170.56v.63a1.08,1.08,0,0,1-.28.22v-.63a1.09,1.09,0,0,0,.28-.22Z" style="fill:#f1f1f4"/></g></g></g><polygon points="75.01 170.78 75.01 171.41 72.59 172.81 72.59 172.19 75.01 170.78" style="fill:#f1f1f4"/><g style="isolation:isolate"><path id="SVGID-58" data-name="SVGID" d="M70,172.19v-.63a.75.75,0,0,0,.45.62,2.36,2.36,0,0,0,2.14,0v.63a2.36,2.36,0,0,1-2.14,0A.75.75,0,0,1,70,172.19Z" style="fill:#f1f1f4"/><g style="clip-path:url(#clip-path-45)"><g style="isolation:isolate"><path d="M72.59,172.19v.63a2,2,0,0,1-.75.24v-.63a2,2,0,0,0,.75-.24Z" style="fill:#f1f1f4"/><path d="M71.84,172.42v.63a2.32,2.32,0,0,1-1.39-.24.75.75,0,0,1-.45-.62v-.63a.75.75,0,0,0,.45.62,2.32,2.32,0,0,0,1.39.24Z" style="fill:#f1f1f4"/></g></g></g><path d="M75,169.54a.66.66,0,0,1,0,1.24l-2.42,1.41a2.36,2.36,0,0,1-2.14,0,.66.66,0,0,1,0-1.24l2.42-1.41A2.37,2.37,0,0,1,75,169.54Z" style="fill:#fff"/></g><g style="isolation:isolate"><g style="isolation:isolate"><path id="SVGID-59" data-name="SVGID" d="M84,181.86v.63a.75.75,0,0,1-.44.62v-.63A.75.75,0,0,0,84,181.86Z" style="fill:#f1f1f4"/><g style="clip-path:url(#clip-path-46)"><g style="isolation:isolate"><path d="M84,181.86v.63a.6.6,0,0,1-.16.39v-.63a.6.6,0,0,0,.16-.39Z" style="fill:#f1f1f4"/><path d="M83.86,182.26v.63a1.09,1.09,0,0,1-.28.22v-.63a1.1,1.1,0,0,0,.28-.22Z" style="fill:#f1f1f4"/></g></g></g><polygon points="83.59 182.48 83.59 183.11 81.17 184.51 81.17 183.89 83.59 182.48" style="fill:#f1f1f4"/><g style="isolation:isolate"><path id="SVGID-60" data-name="SVGID" d="M78.58,183.89v-.63a.76.76,0,0,0,.44.62,2.36,2.36,0,0,0,2.14,0v.63a2.37,2.37,0,0,1-2.14,0A.76.76,0,0,1,78.58,183.89Z" style="fill:#f1f1f4"/><g style="clip-path:url(#clip-path-47)"><g style="isolation:isolate"><path d="M81.17,183.89v.63a2,2,0,0,1-.75.24v-.63a2,2,0,0,0,.75-.24Z" style="fill:#f1f1f4"/><path d="M80.42,184.12v.63a2.32,2.32,0,0,1-1.39-.24.76.76,0,0,1-.44-.62v-.63a.76.76,0,0,0,.44.62,2.32,2.32,0,0,0,1.39.24Z" style="fill:#f1f1f4"/></g></g></g><path d="M83.58,181.24a.66.66,0,0,1,0,1.24l-2.42,1.41a2.36,2.36,0,0,1-2.14,0,.66.66,0,0,1,0-1.24l2.42-1.41A2.37,2.37,0,0,1,83.58,181.24Z" style="fill:#fff"/></g><g style="isolation:isolate"><g style="isolation:isolate"><path id="SVGID-61" data-name="SVGID" d="M66.09,178.41V179a.75.75,0,0,1-.44.62V179A.75.75,0,0,0,66.09,178.41Z" style="fill:#f1f1f4"/><g style="clip-path:url(#clip-path-48)"><g style="isolation:isolate"><path d="M66.09,178.41V179a.6.6,0,0,1-.16.39v-.63a.6.6,0,0,0,.16-.39Z" style="fill:#f1f1f4"/><path d="M65.93,178.8v.63a1.09,1.09,0,0,1-.28.22V179a1.09,1.09,0,0,0,.28-.22Z" style="fill:#f1f1f4"/></g></g></g><polygon points="65.65 179.02 65.65 179.65 63.23 181.06 63.23 180.43 65.65 179.02" style="fill:#f1f1f4"/><g style="isolation:isolate"><path id="SVGID-62" data-name="SVGID" d="M60.65,180.43v-.63a.75.75,0,0,0,.45.62,2.36,2.36,0,0,0,2.14,0v.63a2.37,2.37,0,0,1-2.14,0A.76.76,0,0,1,60.65,180.43Z" style="fill:#f1f1f4"/><g style="clip-path:url(#clip-path-49)"><g style="isolation:isolate"><path d="M63.23,180.43v.63a2,2,0,0,1-.75.24v-.63a2,2,0,0,0,.75-.24Z" style="fill:#f1f1f4"/><path d="M62.49,180.67v.63a2.32,2.32,0,0,1-1.39-.24.76.76,0,0,1-.45-.62v-.63a.75.75,0,0,0,.45.62,2.32,2.32,0,0,0,1.39.24Z" style="fill:#f1f1f4"/></g></g></g><path d="M65.65,177.78a.66.66,0,0,1,0,1.24l-2.42,1.41a2.36,2.36,0,0,1-2.14,0,.66.66,0,0,1,0-1.24l2.42-1.41A2.37,2.37,0,0,1,65.65,177.78Z" style="fill:#fff"/></g><polygon points="310.3 55.72 309.57 56.14 304.82 58.89 281.66 45.52 280.92 45.09 286.4 41.92 310.3 55.72" style="fill:#1c1c1c"/><polygon points="309.57 56.14 304.82 58.89 281.66 45.52 286.42 42.77 309.57 56.14" style="fill:#333"/><polygon points="319.88 50.19 319.15 50.61 314.4 53.35 291.24 39.98 290.49 39.56 295.98 36.39 319.88 50.19" style="fill:#1c1c1c"/><polygon points="319.15 50.61 314.4 53.35 291.24 39.98 295.99 37.24 319.15 50.61" style="fill:#333"/><g style="isolation:isolate"><polygon points="296.01 52.95 298.48 51.52 303 50.39 300.53 51.83 296.01 52.95" style="fill:#111114"/><polygon points="303.61 53.82 306.08 52.39 307.37 56.65 304.89 58.08 303.61 53.82" style="fill:#1c1c1c"/><polygon points="303.61 52.16 306.08 50.73 306.08 52.39 303.61 53.82 303.61 52.16" style="fill:#272727"/><polygon points="300.54 50.39 303.01 48.95 306.08 50.73 303.61 52.16 300.54 50.39" style="fill:#16161d"/><polygon points="303.61 52.16 303.61 53.82 304.89 58.08 296.01 52.95 300.53 51.83 300.54 50.39 303.61 52.16" style="fill:#0f1014"/></g><g style="isolation:isolate"><polygon points="292.25 39.74 294.72 38.31 299.25 37.18 296.77 38.62 292.25 39.74" style="fill:#111114"/><polygon points="299.85 40.61 302.32 39.17 303.61 43.44 301.14 44.87 299.85 40.61" style="fill:#1c1c1c"/><polygon points="299.86 38.95 302.33 37.52 302.32 39.17 299.85 40.61 299.86 38.95" style="fill:#272727"/><polygon points="296.78 37.18 299.25 35.74 302.33 37.52 299.86 38.95 296.78 37.18" style="fill:#16161d"/><polygon points="299.86 38.95 299.85 40.61 301.14 44.87 292.25 39.74 296.77 38.62 296.78 37.18 299.86 38.95" style="fill:#0f1014"/></g><path d="M237.1,167.46l6-3.47a11.42,11.42,0,0,1,10.36,0l3,1.74,3.09,1.78,67.55,39c3.87,2.23,3.89,5.85,0,8.09L322.94,217h0L124.16,332.55h0l-29.2,17a16.09,16.09,0,0,1-14.6,0L15.84,312.26A15.4,15.4,0,0,1,12.77,310a10,10,0,0,1-1.89-2.48c-2.07-3.91-.45-8.32,4.87-11.41L38.31,283Z" style="fill:#402e08;opacity:0.30000000000000004"/></g></g></svg>