<svg xmlns="http://www.w3.org/2000/svg" viewBox="0 0 176.53 176.53"><defs><style>.cls-1{fill:#ceeaec;}.cls-2{fill:#85cbcf;}.cls-3{fill:#ffc477;}.cls-4{fill:#dae5e6;}.cls-5{fill:#90b2b4;}.cls-6{fill:#64989b;}</style></defs><g id="Layer_2" data-name="Layer 2"><g id="Layer_1-2" data-name="Layer 1"><path class="cls-1" d="M173.59,120.63v53h-53V103h35.31v17.65Z"/><path class="cls-2" d="M173.59,44.13V79.44H126.52V44.13a2.39,2.39,0,0,1,0-.53,5.87,5.87,0,0,1,5.85-5.35h35.31A5.9,5.9,0,0,1,173.59,44.13Z"/><path class="cls-2" d="M173.59,120.63H155.94V103Z"/><circle class="cls-3" cx="150.05" cy="20.62" r="17.65"/><path class="cls-2" d="M111.81,88.27h35.3A59.36,59.36,0,0,1,145.26,103H120.63v27.36A58.18,58.18,0,0,0,107,123.72,125.71,125.71,0,0,0,111.81,88.27Z"/><path class="cls-2" d="M126.55,43.63a2.39,2.39,0,0,0,0,.53v.56a58.61,58.61,0,0,1-18.72,10.8c-4.2-15.74-11.38-26.07-19.53-26.07a58.65,58.65,0,0,1,38.28,14.18Z"/><path class="cls-2" d="M111.81,88.27H64.73c0-3,.09-6,.26-8.83h8.57a5.9,5.9,0,0,0,5.88-5.88V58.2a62,62,0,0,0,8.83.64,57.79,57.79,0,0,0,19.53-3.35A128,128,0,0,1,111.81,88.27Z"/><path class="cls-2" d="M88.27,120.66A58.21,58.21,0,0,1,107,123.75C102.74,138,96,147.14,88.27,147.14S73.79,138,69.5,123.75A57.32,57.32,0,0,1,88.27,120.66Z"/><path class="cls-4" d="M79.44,58.2V73.56a5.9,5.9,0,0,1-5.88,5.88h-53a5.9,5.9,0,0,1-5.89-5.88V32.36a5.9,5.9,0,0,1,5.89-5.88h53A5.85,5.85,0,0,1,79,30.16a5.76,5.76,0,0,1,.44,2.2Z"/><path class="cls-2" d="M69.5,123.72a58.51,58.51,0,0,0-18.39,10.15A57.85,57.85,0,0,1,41.52,124a17.36,17.36,0,0,0,2.61-9.24,17.69,17.69,0,0,0-14-17.27,55.81,55.81,0,0,1-.74-9.21H64.73A125,125,0,0,0,69.5,123.72Z"/><path class="cls-5" d="M67.67,20.6v5.88H20.6a5.9,5.9,0,0,0-5.89,5.88v41.2a5.9,5.9,0,0,0,5.89,5.88H8.83a5.9,5.9,0,0,1-5.89-5.88V8.83A5.91,5.91,0,0,1,8.83,2.94H20.6a5.93,5.93,0,0,1,5.88,5.89,5.9,5.9,0,0,0,5.88,5.88H61.79A5.9,5.9,0,0,1,67.67,20.6Z"/><path class="cls-6" d="M147.11,88.27h-35.3a128,128,0,0,0-4-32.78,58.61,58.61,0,0,0,18.72-10.8V79.44h19.92A59.25,59.25,0,0,1,147.11,88.27Z"/><path class="cls-6" d="M120.63,130.37v7.06a58.46,58.46,0,0,1-32.36,9.71c7.68,0,14.47-9.18,18.77-23.39A58.18,58.18,0,0,1,120.63,130.37Z"/><path class="cls-6" d="M64.73,88.27h47.08A125.71,125.71,0,0,1,107,123.72a58.48,58.48,0,0,0-18.77-3.09,57.32,57.32,0,0,0-18.77,3.09,125,125,0,0,1-4.77-35.45Z"/><path class="cls-6" d="M88.27,29.45c8.15,0,15.33,10.33,19.53,26.07a57.79,57.79,0,0,1-19.53,3.35,62,62,0,0,1-8.83-.64V33.72A12.63,12.63,0,0,1,88.27,29.45Z"/><path class="cls-6" d="M69.5,123.75c4.29,14.21,11.09,23.39,18.77,23.39A58.38,58.38,0,0,1,51.11,133.9,58.51,58.51,0,0,1,69.5,123.75Z"/><path class="cls-6" d="M30.1,79.44H65c-.17,2.88-.26,5.83-.26,8.83H29.42A58,58,0,0,1,30.1,79.44Z"/><path class="cls-2" d="M50,138.29v35.3H2.94v-35.3a5.91,5.91,0,0,1,5.89-5.89h35.3A5.91,5.91,0,0,1,50,138.29Z"/><path class="cls-3" d="M44.13,114.78A17.3,17.3,0,0,1,41.52,124a17.65,17.65,0,1,1-15-26.89,16.26,16.26,0,0,1,3.68.39A17.69,17.69,0,0,1,44.13,114.78Z"/><path d="M176.53,79.44V44.13a8.82,8.82,0,0,0-8.82-8.82h-3.27A20.6,20.6,0,1,0,135.31,35l.36.36H132.4a8.77,8.77,0,0,0-7.08,3.6,61.77,61.77,0,0,0-37-12.43,60.62,60.62,0,0,0-7.74.53,8.81,8.81,0,0,0-7-3.47h-3V20.6a8.82,8.82,0,0,0-8.82-8.83H32.36a3,3,0,0,1-2.94-2.95A8.82,8.82,0,0,0,20.6,0H8.83A8.83,8.83,0,0,0,0,8.83V73.56a8.82,8.82,0,0,0,8.83,8.82h18c-.19,2-.32,3.94-.32,5.89s.13,4,.31,5.9l-.31,0A20.57,20.57,0,0,0,12.1,129.46H8.83A8.83,8.83,0,0,0,0,138.29v35.3a2.94,2.94,0,0,0,2.94,2.94H50A2.94,2.94,0,0,0,53,173.59V139a61.76,61.76,0,0,0,64.73,3.59v31a2.94,2.94,0,0,0,2.94,2.94h53a2.93,2.93,0,0,0,2.94-2.94v-53a2.94,2.94,0,0,0-.86-2.08L158,100.9a2.94,2.94,0,0,0-2.08-.86h-7a62.83,62.83,0,0,0,1.12-11.77c0-2-.13-3.92-.32-5.89h23.86a2.93,2.93,0,0,0,2.94-2.94ZM135.34,20.62a14.72,14.72,0,1,1,14.71,14.72A14.72,14.72,0,0,1,135.34,20.62ZM88.27,144.2c-5.33,0-11-6.9-15-18.51a55.23,55.23,0,0,1,30,0c-4,11.6-9.67,18.51-15,18.51Zm-12.7-1.44A55.29,55.29,0,0,1,56,133.93a56.11,56.11,0,0,1,11.73-6.35,51.89,51.89,0,0,0,7.88,15.18Zm12.7-25.07A61.52,61.52,0,0,0,71.53,120a121.89,121.89,0,0,1-3.8-28.83H108.8A121.78,121.78,0,0,1,105,120,61.89,61.89,0,0,0,88.27,117.69ZM67.76,85.33c0-1,0-2,.09-3h5.71a8.82,8.82,0,0,0,8.82-8.82V61.48c2,.18,4,.31,5.89.31a61.93,61.93,0,0,0,17.42-2.56,125.21,125.21,0,0,1,3.11,26.1Zm20.51-29.4a58,58,0,0,1-5.89-.34V35a9.17,9.17,0,0,1,5.89-2.65c5.72,0,11.81,8,15.89,21.19A55.93,55.93,0,0,1,88.27,55.93Zm12.77-22a56,56,0,0,1,21.42,10.23,55.44,55.44,0,0,1-12.79,7.44A55.13,55.13,0,0,0,101,33.93ZM5.88,73.65V8.83a3,3,0,0,1,3-2.95H20.6a3,3,0,0,1,2.94,3,8.81,8.81,0,0,0,8.82,8.81H61.79a3,3,0,0,1,2.94,3v2.94H20.3a8.53,8.53,0,0,0-8.53,8.53V73.56a8.69,8.69,0,0,0,.54,2.94H8.73A2.86,2.86,0,0,1,5.88,73.65Zm11.77-.09V32.36a3,3,0,0,1,3-2.94h53a2.94,2.94,0,0,1,2.94,2.94v41.2a2.94,2.94,0,0,1-2.94,2.94h-53A3,3,0,0,1,17.65,73.56ZM62,82.38c0,1-.06,2-.08,3H32.48c.05-1,.13-2,.24-3ZM32.48,91.21H61.85A126.82,126.82,0,0,0,66,121.92a62.11,62.11,0,0,0-14.75,8.2A58.14,58.14,0,0,1,45,123.65a20.52,20.52,0,0,0-9.52-27.41,19.31,19.31,0,0,0-2.67-1.07c-.19-1.3-.3-2.62-.37-4Zm9.09,37.5c.22.26.46.5.68.75H40.86C41.11,129.22,41.34,129,41.57,128.71Zm-29.8-13.93a14.71,14.71,0,1,1,14.71,14.71A14.72,14.72,0,0,1,11.77,114.78Zm35.31,55.87H5.88V138.29a3,3,0,0,1,3-2.95h35.3a3,3,0,0,1,2.95,2.95ZM101,142.73a51.84,51.84,0,0,0,7.86-15.18,55.84,55.84,0,0,1,8.83,4.47v3.76A55.46,55.46,0,0,1,101,142.73Zm22.57,27.92V105.92H153v14.71a2.93,2.93,0,0,0,2.94,2.94h14.71v47.08Zm35.31-60.57,7.61,7.61h-7.61ZM117.69,103v22.19a62.58,62.58,0,0,0-7.1-3.3,127.45,127.45,0,0,0,4.1-30.66h29.39A55.92,55.92,0,0,1,142.9,100H120.63A2.94,2.94,0,0,0,117.69,103Zm26.37-17.65H114.69a129.9,129.9,0,0,0-3.43-28,61.87,61.87,0,0,0,12.31-6.62V79.44a2.94,2.94,0,0,0,3,2.94h17.29C143.92,83.37,144,84.34,144.06,85.33Zm26.59-8.83H129.46V44.13a2.94,2.94,0,0,1,2.94-2.94h35.31a2.94,2.94,0,0,1,2.94,2.94Z"/><path d="M135.34,135.34h23.54v5.89H135.34Z"/><path d="M135.34,153h23.54v5.88H135.34Z"/></g></g></svg>