<svg xmlns="http://www.w3.org/2000/svg" viewBox="0 0 454.13 355"><g id="Layer_2" data-name="Layer 2"><g id="Layer_1-2" data-name="Layer 1"><path d="M436.85,244.22a14.41,14.41,0,0,0-15.09,1.25c-6.45,4.92-7.44,14.54-5,22.28s7.51,14.32,11.49,21.39c5.34,9.5,8.78,20.37,7.9,31.24s-6.59,21.64-16.1,27c-8.82,4.95-19.51,4.76-29.62,4.44" style="fill:none;stroke:#f1f1f1;stroke-miterlimit:10;stroke-width:0.751469194814438px"/><ellipse cx="443.35" cy="248.76" rx="5.32" ry="10.96" transform="translate(5.2 506.57) rotate(-59.77)" style="fill:#f1f1f1"/><ellipse cx="433.27" cy="283.48" rx="5.32" ry="10.96" transform="translate(-29.8 515.1) rotate(-59.77)" style="fill:#f1f1f1"/><ellipse cx="413.12" cy="278.26" rx="5.32" ry="10.96" transform="translate(-35.3 495.09) rotate(-59.77)" style="fill:#f1f1f1"/><ellipse cx="425.35" cy="319.45" rx="5.32" ry="10.96" transform="translate(-64.81 526.12) rotate(-59.77)" style="fill:#f1f1f1"/><ellipse cx="444.29" cy="330.49" rx="5.32" ry="10.96" transform="translate(-64.95 547.96) rotate(-59.77)" style="fill:#f1f1f1"/><path d="M376.28,235.56a14.39,14.39,0,0,0-12.41,8.67c-3.1,7.5.89,16.31,6.89,21.78s13.7,8.59,20.69,12.7c9.4,5.52,17.85,13.18,22.55,23s5.21,22-.32,31.4c-5.13,8.72-14.46,13.94-23.36,18.75" style="fill:none;stroke:#413f56;stroke-miterlimit:10;stroke-width:0.751469194814438px"/><ellipse cx="384.18" cy="236.21" rx="10.96" ry="5.32" style="fill:#9bc9cd"/><ellipse cx="392.95" cy="271.28" rx="10.96" ry="5.32" style="fill:#9bc9cd"/><ellipse cx="372.91" cy="276.92" rx="10.96" ry="5.32" style="fill:#9bc9cd"/><ellipse cx="404.22" cy="306.35" rx="10.96" ry="5.32" style="fill:#9bc9cd"/><ellipse cx="426.14" cy="306.35" rx="10.96" ry="5.32" style="fill:#9bc9cd"/><ellipse cx="378.85" cy="0.31" rx="0.28" ry="0.33" transform="translate(87.76 242.79) rotate(-39.84)" style="fill:#f1f1f1"/><rect x="137.84" y="186.81" width="96.96" height="48.11" rx="5.04" style="fill:#f1f1f1"/><circle cx="45.42" cy="135.35" r="6.34" style="fill:#9bc9cd"/><circle cx="47.28" cy="133.11" r="6.34" style="fill:none;stroke:#413f56;stroke-miterlimit:10;stroke-width:0.372919805350826px"/><circle cx="122.61" cy="215.15" r="6.34" style="fill:#f1f1f1"/><circle cx="124.48" cy="212.91" r="6.34" style="fill:none;stroke:#413f56;stroke-miterlimit:10;stroke-width:0.372919805350826px"/><circle cx="171.84" cy="167.04" r="6.34" style="fill:#9bc9cd"/><circle cx="173.7" cy="164.81" r="6.34" style="fill:none;stroke:#413f56;stroke-miterlimit:10;stroke-width:0.372919805350826px"/><rect x="53.56" y="150.27" width="96.96" height="48.11" rx="5.04" style="fill:#9bc9cd"/><rect x="59.34" y="145.98" width="96.96" height="48.11" rx="5.04" style="fill:none;stroke:#413f56;stroke-miterlimit:10;stroke-width:0.372919805350826px"/><rect x="143.25" y="182.52" width="96.96" height="48.11" rx="5.04" style="fill:none;stroke:#413f56;stroke-miterlimit:10;stroke-width:0.372919805350826px"/><circle cx="59.23" cy="291.66" r="59.23" style="fill:#f1f1f1"/><path d="M130.88,317.94a125.17,125.17,0,1,1,88.49-36.66A125.15,125.15,0,0,1,130.88,317.94Zm0-249.35a124.2,124.2,0,1,0,124.19,124.2A124.34,124.34,0,0,0,130.88,68.59Z" style="fill:#323242"/><circle cx="207.78" cy="94.86" r="23.88" style="fill:#413f56"/><rect x="13.58" y="350.16" width="411" height="0.85" style="fill:#323242"/><path d="M337.88,221.47l5.46,14.95s-5.7,17.09,0,17.57,6.4-16.38,6.4-16.38l-3.08-18Z" style="fill:#ecb7b7"/><path d="M340.54,172.58l4,4v19.23s2.38,3.56,1.9,4.51-1,1-.47,1.66.95,1.18.47,1.66a1.8,1.8,0,0,0,0,2.14c.48.47,1.43,1.18.71,1.89s-1.66.24-.71,2.85,2.61,3.33,2.14,4.28a10.54,10.54,0,0,0-.48,3.32l-10.2,1.42-2.14-26.82Z" style="fill:#cdcbde"/><polygon points="348.56 217.91 336.69 218.38 337.16 223.37 347.61 221.47 348.56 217.91" style="fill:#413f56"/><polygon points="315.92 147.64 314.5 161.88 328.98 164.02 330.04 155.83 331.11 147.64 315.92 147.64" style="fill:#ecb7b7"/><polygon points="315.92 147.64 314.5 161.88 328.98 164.02 330.04 155.83 331.11 147.64 315.92 147.64" style="opacity:0.100000001490116;isolation:isolate"/><path d="M284.47,215.43l8.07,17.33s1.43,8.07,3.56,8.31,4.27-8.31,4.27-8.31l-2.84-4.51-3.33-12.82Z" style="fill:#ecb7b7"/><path d="M301.13,231.31l-6.63,10.42s-6.39,99.25-5.45,98.54,4-.95,5.21-2.84,8.53,0,8.53,0l4.27-4.51v-3.55c0-.71,8.52-54.95,8.52-54.95v13.74s-2.6,50.45,1.66,50,13-3.32,13-3.32S342.82,240.55,339,237s-5.45-11.61-5.45-11.61Z" style="fill:#323242"/><circle cx="323.87" cy="141.01" r="11.39" style="fill:#ecb7b7"/><path d="M298.47,164.17l-1.66-.95s-7.35,5-9.73,16.14-4,14-4,14-2.38.48-.72,2.14,1.67,1.42.24,2.37-2.37-1-1.42.95,2.13,1.43,1.18,2.61-2.61,1.19-1.66,2.14-.95,3.08.24,4,1.66,1.19,1.66,2.85a8.41,8.41,0,0,0,.48,2.85h12.34s-2.37-4.51-1.66-5.46.95-1.9.47-2.37-1.9.47-.47-.72,1.9-.47,1.42-1.89-1.42-.72-.47-1.43,1.66-.47,1.18-1.18-1.42-.72-.47-1.19,1.66,0,1.42-1.19-.47-.71,0-1.19,5.46-16.61,5.46-17.08S298.47,164.17,298.47,164.17Z" style="fill:#cdcbde"/><polygon points="296.1 212.45 281.15 213.4 284.95 216.96 295.39 217.2 296.1 212.45" style="fill:#413f56"/><path d="M300.37,230.25l-3.08,5.7s9.25,1.19,12.58,2.37,11.87,2.85,11.87,2.85l2.13-8.31Z" style="fill:#413f56"/><polygon points="327.43 232.86 330.04 240.7 340.49 238.56 339.3 231.2 327.43 232.86" style="fill:#413f56"/><path d="M331.7,156.2s-.71-.48-2.37.47-7.12,1.43-9.73-1.42-4.51-5.22-5.22-4.75-1.19,5.94-1.19,5.94l-2.37,1.89-14,5,1.19,32,2.14,7.36s-1.67,5.7.47,9-1.19,4.51-1.19,4.51-.71.95-.23,3.32-.48,11.16-.48,11.16,20.18,9,41.3,1.18l-2.37-9-1.19-20.18s1.19-3.32.95-4.75,7.12-21.36,7.12-21.36-1.18-10-7.36-12.1-7.12-4.28-7.12-4.28S332.89,157.15,331.7,156.2Z" style="fill:#cdcbde"/><path d="M312.4,142.47a5.27,5.27,0,0,1-.73-3.69,11.22,11.22,0,0,0,.32-3.32,32.88,32.88,0,0,1,1.91-4.82c1-1.73.5-2.46,3.51-3s1.77-4.46,9.69-.23a2.29,2.29,0,0,0,2.41.91c1.64-.31,2.23,2,2.23,2s1.09-.64,1.5.27,3.33-.54,3.33,5.6a25.46,25.46,0,0,1-3.32,11.63s.24-10.33-5.17-11.38-11.24-4.09-12.65-.18A30.15,30.15,0,0,1,312.4,142.47Z" style="fill:#323242"/><ellipse cx="333.37" cy="143.5" rx="1.07" ry="1.42" style="fill:#ecb7b7"/><path d="M327.31,334.09l1.67,5s0,5,1.67,7.52,3.34,7.93-3.34,8.34-9.59-2.08-9.59-2.08,1.25-3.34,0-4.59,0-3.76,0-3.76l1.25-10Z" style="fill:#323242"/><path d="M294.8,334.09l-1.67,5s0,5-1.67,7.52-3.34,7.93,3.34,8.34,9.59-2.08,9.59-2.08-1.25-3.34,0-4.59,0-3.76,0-3.76l-1.25-10Z" style="fill:#323242"/></g></g></svg>