<svg xmlns="http://www.w3.org/2000/svg" viewBox="0 0 50 50"><defs><style>.cls-1{fill:#c1272d;}.cls-2{fill:#fff;}</style></defs><g id="Layer_2" data-name="Layer 2"><g id="Layer_1-2" data-name="Layer 1"><path class="cls-1" d="M48.88,17.57a24.68,24.68,0,0,0-1.35-3.41A22.73,22.73,0,0,0,46.38,12c-.42-.69-.87-1.36-1.35-2A24.69,24.69,0,0,0,40,5a25.57,25.57,0,0,0-5.23-3c-.75-.31-1.51-.59-2.3-.84A24.93,24.93,0,0,0,25,0c-.52,0-1,0-1.55.05l-.4,0c-.4,0-.8.07-1.19.12l-.22,0h0a25,25,0,0,0,0,49.54h0l.22,0c.39.05.79.09,1.19.12l.4,0c.51,0,1,0,1.54,0h0A25,25,0,0,0,45.73,39c.23-.33.44-.67.65-1a24.33,24.33,0,0,0,2.1-4.36,25,25,0,0,0,1-3.56,22.83,22.83,0,0,0,.38-2.48A24.11,24.11,0,0,0,50,25,24.93,24.93,0,0,0,48.88,17.57Z"/><path class="cls-2" d="M30.6,25l6.59-6.58a1.24,1.24,0,0,0,0-1.73l-3.88-3.88a1.24,1.24,0,0,0-1.73,0L25,19.4l-6.58-6.59a1.24,1.24,0,0,0-1.73,0l-3.88,3.88a1.24,1.24,0,0,0,0,1.73L19.4,25l-6.59,6.58a1.24,1.24,0,0,0,0,1.73l3.88,3.88a1.24,1.24,0,0,0,1.73,0L25,30.6l6.58,6.59a1.24,1.24,0,0,0,1.73,0l3.88-3.88a1.22,1.22,0,0,0,0-1.73Z"/></g></g></svg>